# Blender v2.80 (sub 75) OBJ File: 'impetus_generator.blend'
# www.blender.org
mtllib impetus_generator.mtl
o Gem_cube.000
v 0.593750 0.218750 0.593750
v 0.593750 0.187500 0.593750
v 0.593750 0.218750 0.406250
v 0.593750 0.187500 0.406250
v 0.406250 0.218750 0.406250
v 0.406250 0.187500 0.406250
v 0.406250 0.218750 0.593750
v 0.406250 0.187500 0.593750
v 0.000000 0.193627 0.390362
v 0.375000 0.093750 0.437500
v 0.375000 0.218750 0.437500
v 0.375000 0.093750 0.375000
v 0.375000 0.218750 0.375000
v 0.437500 0.093750 0.437500
v 0.437500 0.218750 0.437500
v 0.437500 0.093750 0.375000
v 0.437500 0.218750 0.375000
v 0.562500 0.093750 0.437500
v 0.562500 0.218750 0.437500
v 0.562500 0.093750 0.375000
v 0.562500 0.218750 0.375000
v 0.625000 0.093750 0.437500
v 0.625000 0.218750 0.437500
v 0.625000 0.093750 0.375000
v 0.625000 0.218750 0.375000
v 0.375000 0.093750 0.625000
v 0.375000 0.218750 0.625000
v 0.375000 0.093750 0.562500
v 0.375000 0.218750 0.562500
v 0.437500 0.093750 0.625000
v 0.437500 0.218750 0.625000
v 0.437500 0.093750 0.562500
v 0.437500 0.218750 0.562500
v 0.562500 0.093750 0.625000
v 0.562500 0.218750 0.625000
v 0.562500 0.093750 0.562500
v 0.562500 0.218750 0.562500
v 0.625000 0.093750 0.625000
v 0.625000 0.218750 0.625000
v 0.625000 0.093750 0.562500
v 0.625000 0.218750 0.562500
v 0.437500 0.031250 0.562500
v 0.437500 0.156250 0.562500
v 0.437500 0.031250 0.437500
v 0.437500 0.156250 0.437500
v 0.562500 0.031250 0.562500
v 0.562500 0.156250 0.562500
v 0.562500 0.031250 0.437500
v 0.562500 0.156250 0.437500
vt 0.812500 0.187500
vt 0.937500 0.187500
vt 0.937500 0.250000
vt 0.812500 0.250000
vt 0.812500 0.187500
vt 0.937500 0.187500
vt 0.937500 0.250000
vt 0.812500 0.250000
vt 0.812500 0.187500
vt 0.937500 0.187500
vt 0.937500 0.250000
vt 0.812500 0.250000
vt 0.812500 0.187500
vt 0.937500 0.187500
vt 0.937500 0.250000
vt 0.812500 0.250000
vt 0.750000 0.250000
vt 0.750000 0.187500
vt 0.812500 0.187500
vt 0.937500 0.187500
vt 0.937500 0.250000
vt 0.812500 0.250000
vt 0.812500 0.187500
vt 0.937500 0.187500
vt 0.937500 0.250000
vt 0.812500 0.250000
vt 0.812500 0.187500
vt 0.937500 0.187500
vt 0.937500 0.250000
vt 0.812500 0.250000
vt 0.812500 0.187500
vt 0.937500 0.187500
vt 0.937500 0.250000
vt 0.812500 0.250000
vt 0.750000 0.250000
vt 0.750000 0.187500
vt 0.812500 0.187500
vt 0.937500 0.187500
vt 0.937500 0.250000
vt 0.812500 0.250000
vt 0.812500 0.187500
vt 0.937500 0.187500
vt 0.937500 0.250000
vt 0.812500 0.250000
vt 0.812500 0.187500
vt 0.937500 0.187500
vt 0.937500 0.250000
vt 0.812500 0.250000
vt 0.812500 0.187500
vt 0.937500 0.187500
vt 0.937500 0.250000
vt 0.812500 0.250000
vt 0.750000 0.250000
vt 0.750000 0.187500
vt 0.812500 0.187500
vt 0.937500 0.187500
vt 0.937500 0.250000
vt 0.812500 0.250000
vt 0.812500 0.187500
vt 0.937500 0.187500
vt 0.937500 0.250000
vt 0.812500 0.250000
vt 0.812500 0.187500
vt 0.937500 0.187500
vt 0.937500 0.250000
vt 0.812500 0.250000
vt 0.812500 0.187500
vt 0.937500 0.187500
vt 0.937500 0.250000
vt 0.812500 0.250000
vt 0.750000 0.250000
vt 0.750000 0.187500
vt 0.531250 0.468750
vt 0.531250 0.281250
vt 0.718750 0.281250
vt 0.718750 0.468750
vt 0.531250 0.468750
vt 0.531250 0.281250
vt 0.718750 0.281250
vt 0.718750 0.468750
vt 0.531250 0.468750
vt 0.531250 0.281250
vt 0.718750 0.281250
vt 0.718750 0.468750
vt 0.531250 0.468750
vt 0.531250 0.281250
vt 0.718750 0.281250
vt 0.718750 0.468750
vt 0.718750 0.281250
vt 0.531250 0.281250
vt 0.718750 0.468750
vt 0.531250 0.468750
vt 0.281250 0.281250
vt 0.468750 0.281250
vt 0.468750 0.468750
vt 0.281250 0.468750
vt 0.281250 0.281250
vt 0.468750 0.281250
vt 0.468750 0.312500
vt 0.281250 0.312500
vt 0.281250 0.281250
vt 0.468750 0.281250
vt 0.468750 0.312500
vt 0.281250 0.312500
vt 0.281250 0.281250
vt 0.468750 0.312500
vt 0.281250 0.312500
vt 0.468750 0.281250
vt 0.468750 0.312500
vt 0.281250 0.312500
vn -1.0000 0.0000 0.0000
vn 0.0000 0.0000 -1.0000
vn 1.0000 0.0000 0.0000
vn 0.0000 0.0000 1.0000
vn 0.0000 -1.0000 -0.0000
vn 0.0000 1.0000 0.0000
usemtl base
s off
f 10/1/1 11/2/1 13/3/1 12/4/1
f 12/5/2 13/6/2 17/7/2 16/8/2
f 16/9/3 17/10/3 15/11/3 14/12/3
f 14/13/4 15/14/4 11/15/4 10/16/4
f 12/4/5 16/17/5 14/18/5 10/1/5
f 18/19/1 19/20/1 21/21/1 20/22/1
f 20/23/2 21/24/2 25/25/2 24/26/2
f 24/27/3 25/28/3 23/29/3 22/30/3
f 22/31/4 23/32/4 19/33/4 18/34/4
f 20/22/5 24/35/5 22/36/5 18/19/5
f 26/37/1 27/38/1 29/39/1 28/40/1
f 28/41/2 29/42/2 33/43/2 32/44/2
f 32/45/3 33/46/3 31/47/3 30/48/3
f 30/49/4 31/50/4 27/51/4 26/52/4
f 28/40/5 32/53/5 30/54/5 26/37/5
f 34/55/1 35/56/1 37/57/1 36/58/1
f 36/59/2 37/60/2 41/61/2 40/62/2
f 40/63/3 41/64/3 39/65/3 38/66/3
f 38/67/4 39/68/4 35/69/4 34/70/4
f 36/58/5 40/71/5 38/72/5 34/55/5
f 42/73/1 43/74/1 45/75/1 44/76/1
f 44/77/2 45/78/2 49/79/2 48/80/2
f 48/81/3 49/82/3 47/83/3 46/84/3
f 46/85/4 47/86/4 43/87/4 42/88/4
f 44/89/5 48/80/5 46/85/5 42/90/5
f 49/82/6 45/75/6 43/91/6 47/92/6
s 1
f 6/93/5 4/94/5 2/95/5 8/96/5
f 8/97/4 2/98/4 1/99/4 7/100/4
f 4/101/2 6/102/2 5/103/2 3/104/2
f 2/105/3 4/94/3 3/106/3 1/107/3
f 6/93/1 8/108/1 7/109/1 5/110/1
o Main_cube.006
v 0.750000 0.937500 0.750000
v 0.750000 0.687500 0.750000
v 0.750000 0.937500 0.250000
v 0.750000 0.687500 0.250000
v 0.250000 0.937500 0.250000
v 0.250000 0.687500 0.250000
v 0.250000 0.937500 0.750000
v 0.250000 0.687500 0.750000
v 0.625000 1.000000 0.625000
v 0.625000 0.218750 0.625000
v 0.625000 1.000000 0.375000
v 0.625000 0.218750 0.375000
v 0.375000 1.000000 0.375000
v 0.375000 0.218750 0.375000
v 0.375000 1.000000 0.625000
v 0.375000 0.218750 0.625000
v 0.750000 0.500000 0.750000
v 0.750000 0.250000 0.750000
v 0.750000 0.500000 0.250000
v 0.750000 0.250000 0.250000
v 0.250000 0.500000 0.250000
v 0.250000 0.250000 0.250000
v 0.250000 0.500000 0.750000
v 0.250000 0.250000 0.750000
v 0.562500 0.437500 0.812500
v 0.562500 0.312500 0.812500
v 0.562500 0.437500 0.750000
v 0.562500 0.312500 0.750000
v 0.437500 0.437500 0.750000
v 0.437500 0.312500 0.750000
v 0.437500 0.437500 0.812500
v 0.437500 0.312500 0.812500
v 0.250000 0.437500 0.562500
v 0.250000 0.312500 0.562500
v 0.250000 0.437500 0.437500
v 0.250000 0.312500 0.437500
v 0.187500 0.437500 0.437500
v 0.187500 0.312500 0.437500
v 0.187500 0.437500 0.562500
v 0.187500 0.312500 0.562500
v 0.812500 0.437500 0.562500
v 0.812500 0.312500 0.562500
v 0.812500 0.437500 0.437500
v 0.812500 0.312500 0.437500
v 0.750000 0.437500 0.437500
v 0.750000 0.312500 0.437500
v 0.750000 0.437500 0.562500
v 0.750000 0.312500 0.562500
v 0.562500 0.437500 0.250000
v 0.562500 0.312500 0.250000
v 0.562500 0.437500 0.187500
v 0.562500 0.312500 0.187500
v 0.437500 0.437500 0.187500
v 0.437500 0.312500 0.187500
v 0.437500 0.437500 0.250000
v 0.437500 0.312500 0.250000
v 0.562500 0.875000 0.812500
v 0.562500 0.750000 0.812500
v 0.562500 0.875000 0.750000
v 0.562500 0.750000 0.750000
v 0.437500 0.875000 0.750000
v 0.437500 0.750000 0.750000
v 0.437500 0.875000 0.812500
v 0.437500 0.750000 0.812500
v 0.250000 0.875000 0.562500
v 0.250000 0.750000 0.562500
v 0.250000 0.875000 0.437500
v 0.250000 0.750000 0.437500
v 0.187500 0.875000 0.437500
v 0.187500 0.750000 0.437500
v 0.187500 0.875000 0.562500
v 0.187500 0.750000 0.562500
v 0.812500 0.875000 0.562500
v 0.812500 0.750000 0.562500
v 0.812500 0.875000 0.437500
v 0.812500 0.750000 0.437500
v 0.750000 0.875000 0.437500
v 0.750000 0.750000 0.437500
v 0.750000 0.875000 0.562500
v 0.750000 0.750000 0.562500
v 0.562500 0.875000 0.250000
v 0.562500 0.750000 0.250000
v 0.562500 0.875000 0.187500
v 0.562500 0.750000 0.187500
v 0.437500 0.875000 0.187500
v 0.437500 0.750000 0.187500
v 0.437500 0.875000 0.250000
v 0.437500 0.750000 0.250000
v 0.312500 0.500000 0.375000
v 0.312500 0.687500 0.375000
v 0.312500 0.500000 0.312500
v 0.312500 0.687500 0.312500
v 0.375000 0.500000 0.375000
v 0.375000 0.687500 0.375000
v 0.375000 0.500000 0.312500
v 0.375000 0.687500 0.312500
v 0.625000 0.500000 0.375000
v 0.625000 0.687500 0.375000
v 0.625000 0.500000 0.312500
v 0.625000 0.687500 0.312500
v 0.687500 0.500000 0.375000
v 0.687500 0.687500 0.375000
v 0.687500 0.500000 0.312500
v 0.687500 0.687500 0.312500
v 0.312500 0.500000 0.687500
v 0.312500 0.687500 0.687500
v 0.312500 0.500000 0.625000
v 0.312500 0.687500 0.625000
v 0.375000 0.500000 0.687500
v 0.375000 0.687500 0.687500
v 0.375000 0.500000 0.625000
v 0.375000 0.687500 0.625000
v 0.625000 0.500000 0.687500
v 0.625000 0.687500 0.687500
v 0.625000 0.500000 0.625000
v 0.625000 0.687500 0.625000
v 0.687500 0.500000 0.687500
v 0.687500 0.687500 0.687500
v 0.687500 0.500000 0.625000
v 0.687500 0.687500 0.625000
vt 0.656250 0.781250
vt 0.656250 0.968750
vt 0.593750 0.968750
vt 0.593750 0.781250
vt 0.656250 0.781250
vt 0.656250 0.968750
vt 0.593750 0.968750
vt 0.593750 0.781250
vt 0.593750 0.968750
vt 0.593750 0.781250
vt 0.656250 0.781250
vt 0.656250 0.968750
vt 0.593750 0.968750
vt 0.593750 0.781250
vt 0.656250 0.781250
vt 0.656250 0.968750
vt 0.593750 0.968750
vt 0.593750 0.781250
vt 0.656250 0.781250
vt 0.656250 0.968750
vt 0.656250 0.781250
vt 0.656250 0.968750
vt 0.593750 0.968750
vt 0.593750 0.781250
vt 0.656250 0.781250
vt 0.656250 0.968750
vt 0.593750 0.968750
vt 0.593750 0.781250
vt 0.593750 0.968750
vt 0.593750 0.781250
vt 0.656250 0.781250
vt 0.656250 0.968750
vt 0.656250 0.781250
vt 0.656250 0.968750
vt 0.593750 0.968750
vt 0.593750 0.781250
vt 0.593750 0.968750
vt 0.593750 0.781250
vt 0.656250 0.781250
vt 0.656250 0.968750
vt 0.593750 0.968750
vt 0.593750 0.781250
vt 0.656250 0.781250
vt 0.656250 0.968750
vt 0.656250 0.781250
vt 0.656250 0.968750
vt 0.593750 0.968750
vt 0.593750 0.781250
vt 0.593750 0.968750
vt 0.593750 0.781250
vt 0.656250 0.781250
vt 0.656250 0.968750
vt 0.593750 0.968750
vt 0.593750 0.781250
vt 0.656250 0.781250
vt 0.656250 0.968750
vt 0.656250 0.781250
vt 0.656250 0.968750
vt 0.593750 0.968750
vt 0.593750 0.781250
vt 0.656250 0.781250
vt 0.656250 0.968750
vt 0.593750 0.968750
vt 0.593750 0.781250
vt 0.000000 0.500000
vt 0.500000 0.500000
vt 0.500000 1.000000
vt 0.000000 1.000000
vt 0.000000 0.500000
vt 0.500000 0.500000
vt 0.500000 1.000000
vt 0.000000 1.000000
vt 0.000000 0.000000
vt 0.500000 0.000000
vt 0.500000 0.250000
vt 0.000000 0.250000
vt 0.000000 0.000000
vt 0.500000 0.000000
vt 0.500000 0.250000
vt 0.000000 0.250000
vt 0.000000 0.000000
vt 0.500000 0.000000
vt 0.500000 0.250000
vt 0.000000 0.250000
vt 0.000000 0.000000
vt 0.500000 0.000000
vt 0.500000 0.250000
vt 0.000000 0.250000
vt 0.750000 0.687500
vt 1.000000 0.687500
vt 1.000000 0.937500
vt 0.750000 0.937500
vt 0.500000 0.500000
vt 0.750000 0.500000
vt 0.750000 0.750000
vt 0.500000 0.750000
vt 0.750000 0.218750
vt 1.000000 0.218750
vt 1.000000 1.000000
vt 0.750000 1.000000
vt 0.750000 0.218750
vt 1.000000 0.218750
vt 1.000000 1.000000
vt 0.750000 1.000000
vt 0.750000 0.218750
vt 1.000000 0.218750
vt 1.000000 1.000000
vt 0.750000 1.000000
vt 0.750000 0.218750
vt 1.000000 0.218750
vt 1.000000 1.000000
vt 0.750000 1.000000
vt 0.000000 0.500000
vt 0.500000 0.500000
vt 0.500000 1.000000
vt 0.000000 1.000000
vt 0.000000 0.500000
vt 0.500000 0.500000
vt 0.500000 1.000000
vt 0.000000 1.000000
vt 0.000000 0.000000
vt 0.500000 0.000000
vt 0.500000 0.250000
vt 0.000000 0.250000
vt 0.000000 0.000000
vt 0.500000 0.000000
vt 0.500000 0.250000
vt 0.000000 0.250000
vt 0.000000 0.000000
vt 0.500000 0.000000
vt 0.500000 0.250000
vt 0.000000 0.250000
vt 0.000000 0.000000
vt 0.500000 0.000000
vt 0.500000 0.250000
vt 0.000000 0.250000
vt 0.187500 0.062500
vt 0.250000 0.062500
vt 0.250000 0.187500
vt 0.187500 0.187500
vt 0.250000 0.062500
vt 0.312500 0.062500
vt 0.312500 0.187500
vt 0.250000 0.187500
vt 0.187500 0.062500
vt 0.312500 0.062500
vt 0.312500 0.125000
vt 0.187500 0.125000
vt 0.187500 0.125000
vt 0.312500 0.125000
vt 0.312500 0.187500
vt 0.187500 0.187500
vt 0.562500 0.062500
vt 0.687500 0.062500
vt 0.687500 0.187500
vt 0.562500 0.187500
vt 0.562500 0.062500
vt 0.687500 0.062500
vt 0.687500 0.187500
vt 0.562500 0.187500
vt 0.187500 0.062500
vt 0.250000 0.062500
vt 0.250000 0.187500
vt 0.187500 0.187500
vt 0.187500 0.062500
vt 0.250000 0.062500
vt 0.250000 0.187500
vt 0.187500 0.187500
vt 0.187500 0.062500
vt 0.250000 0.062500
vt 0.250000 0.187500
vt 0.187500 0.187500
vt 0.312500 0.062500
vt 0.312500 0.187500
vt 0.562500 0.062500
vt 0.687500 0.062500
vt 0.687500 0.187500
vt 0.562500 0.187500
vt 0.250000 0.062500
vt 0.312500 0.062500
vt 0.312500 0.187500
vt 0.250000 0.187500
vt 0.250000 0.062500
vt 0.312500 0.062500
vt 0.312500 0.187500
vt 0.250000 0.187500
vt 0.250000 0.062500
vt 0.312500 0.062500
vt 0.312500 0.187500
vt 0.250000 0.187500
vt 0.187500 0.062500
vt 0.187500 0.187500
vt 0.250000 0.062500
vt 0.312500 0.062500
vt 0.312500 0.187500
vt 0.250000 0.187500
vt 0.187500 0.062500
vt 0.250000 0.062500
vt 0.250000 0.187500
vt 0.187500 0.187500
vt 0.187500 0.125000
vt 0.312500 0.125000
vt 0.312500 0.125000
vt 0.187500 0.125000
vt 0.562500 0.062500
vt 0.687500 0.062500
vt 0.687500 0.187500
vt 0.562500 0.187500
vt 0.187500 0.062500
vt 0.250000 0.062500
vt 0.250000 0.187500
vt 0.187500 0.187500
vt 0.250000 0.062500
vt 0.312500 0.062500
vt 0.312500 0.187500
vt 0.250000 0.187500
vt 0.187500 0.062500
vt 0.312500 0.062500
vt 0.312500 0.125000
vt 0.187500 0.125000
vt 0.187500 0.125000
vt 0.312500 0.125000
vt 0.312500 0.187500
vt 0.187500 0.187500
vt 0.562500 0.062500
vt 0.687500 0.062500
vt 0.687500 0.187500
vt 0.562500 0.187500
vt 0.562500 0.062500
vt 0.687500 0.062500
vt 0.687500 0.187500
vt 0.562500 0.187500
vt 0.187500 0.062500
vt 0.250000 0.062500
vt 0.250000 0.187500
vt 0.187500 0.187500
vt 0.187500 0.062500
vt 0.250000 0.062500
vt 0.250000 0.187500
vt 0.187500 0.187500
vt 0.187500 0.062500
vt 0.250000 0.062500
vt 0.250000 0.187500
vt 0.187500 0.187500
vt 0.312500 0.062500
vt 0.312500 0.187500
vt 0.562500 0.062500
vt 0.687500 0.062500
vt 0.687500 0.187500
vt 0.562500 0.187500
vt 0.250000 0.062500
vt 0.312500 0.062500
vt 0.312500 0.187500
vt 0.250000 0.187500
vt 0.250000 0.062500
vt 0.312500 0.062500
vt 0.312500 0.187500
vt 0.250000 0.187500
vt 0.250000 0.062500
vt 0.312500 0.062500
vt 0.312500 0.187500
vt 0.250000 0.187500
vt 0.187500 0.062500
vt 0.187500 0.187500
vt 0.250000 0.062500
vt 0.312500 0.062500
vt 0.312500 0.187500
vt 0.250000 0.187500
vt 0.187500 0.062500
vt 0.250000 0.062500
vt 0.250000 0.187500
vt 0.187500 0.187500
vt 0.187500 0.125000
vt 0.312500 0.125000
vt 0.312500 0.125000
vt 0.187500 0.125000
vt 0.562500 0.062500
vt 0.687500 0.062500
vt 0.687500 0.187500
vt 0.562500 0.187500
vn -1.0000 0.0000 0.0000
vn 0.0000 0.0000 -1.0000
vn 1.0000 0.0000 0.0000
vn 0.0000 0.0000 1.0000
vn 0.0000 1.0000 0.0000
vn 0.0000 -1.0000 -0.0000
usemtl base
s off
f 138/111/7 139/112/7 141/113/7 140/114/7
f 140/115/8 141/116/8 145/117/8 144/118/8
f 144/119/9 145/120/9 143/121/9 142/122/9
f 142/123/10 143/124/10 139/125/10 138/126/10
f 146/127/7 147/128/7 149/129/7 148/130/7
f 148/131/8 149/132/8 153/133/8 152/134/8
f 152/135/9 153/136/9 151/137/9 150/138/9
f 150/139/10 151/140/10 147/141/10 146/142/10
f 154/143/7 155/144/7 157/145/7 156/146/7
f 156/147/8 157/148/8 161/149/8 160/150/8
f 160/151/9 161/152/9 159/153/9 158/154/9
f 158/155/10 159/156/10 155/157/10 154/158/10
f 162/159/7 163/160/7 165/161/7 164/162/7
f 164/163/8 165/164/8 169/165/8 168/166/8
f 168/167/9 169/168/9 167/169/9 166/170/9
f 166/171/10 167/172/10 163/173/10 162/174/10
s 1
f 56/175/11 50/176/11 52/177/11 54/178/11
f 55/179/12 53/180/12 51/181/12 57/182/12
f 57/183/10 51/184/10 50/185/10 56/186/10
f 53/187/8 55/188/8 54/189/8 52/190/8
f 51/191/9 53/192/9 52/193/9 50/194/9
f 55/195/7 57/196/7 56/197/7 54/198/7
f 64/199/11 58/200/11 60/201/11 62/202/11
f 63/203/12 61/204/12 59/205/12 65/206/12
f 65/207/10 59/208/10 58/209/10 64/210/10
f 61/211/8 63/212/8 62/213/8 60/214/8
f 59/215/9 61/216/9 60/217/9 58/218/9
f 63/219/7 65/220/7 64/221/7 62/222/7
f 72/223/11 66/224/11 68/225/11 70/226/11
f 71/227/12 69/228/12 67/229/12 73/230/12
f 73/231/10 67/232/10 66/233/10 72/234/10
f 69/235/8 71/236/8 70/237/8 68/238/8
f 67/239/9 69/240/9 68/241/9 66/242/9
f 71/243/7 73/244/7 72/245/7 70/246/7
f 75/247/9 77/248/9 76/249/9 74/250/9
f 79/251/7 81/252/7 80/253/7 78/254/7
f 80/255/11 74/256/11 76/257/11 78/258/11
f 79/259/12 77/260/12 75/261/12 81/262/12
f 81/263/10 75/264/10 74/265/10 80/266/10
f 87/267/7 89/268/7 88/269/7 86/270/7
f 88/271/11 82/272/11 84/273/11 86/274/11
f 87/275/12 85/276/12 83/277/12 89/278/12
f 89/279/10 83/280/10 82/281/10 88/282/10
f 85/276/8 87/283/8 86/284/8 84/273/8
f 91/285/9 93/286/9 92/287/9 90/288/9
f 96/289/11 90/290/11 92/291/11 94/292/11
f 95/293/12 93/294/12 91/295/12 97/296/12
f 97/297/10 91/298/10 90/299/10 96/300/10
f 93/301/8 95/293/8 94/292/8 92/302/8
f 99/303/9 101/304/9 100/305/9 98/306/9
f 103/307/7 105/308/7 104/309/7 102/310/7
f 104/311/11 98/312/11 100/305/11 102/310/11
f 103/307/12 101/304/12 99/313/12 105/314/12
f 101/315/8 103/316/8 102/317/8 100/318/8
f 107/319/9 109/320/9 108/321/9 106/322/9
f 111/323/7 113/324/7 112/325/7 110/326/7
f 112/327/11 106/328/11 108/329/11 110/330/11
f 111/331/12 109/332/12 107/333/12 113/334/12
f 113/335/10 107/336/10 106/337/10 112/338/10
f 119/339/7 121/340/7 120/341/7 118/342/7
f 120/343/11 114/344/11 116/345/11 118/346/11
f 119/347/12 117/348/12 115/349/12 121/350/12
f 121/351/10 115/352/10 114/353/10 120/354/10
f 117/348/8 119/355/8 118/356/8 116/345/8
f 123/357/9 125/358/9 124/359/9 122/360/9
f 128/361/11 122/362/11 124/363/11 126/364/11
f 127/365/12 125/366/12 123/367/12 129/368/12
f 129/369/10 123/370/10 122/371/10 128/372/10
f 125/373/8 127/365/8 126/364/8 124/374/8
f 131/375/9 133/376/9 132/377/9 130/378/9
f 135/379/7 137/380/7 136/381/7 134/382/7
f 136/383/11 130/384/11 132/377/11 134/382/11
f 135/379/12 133/376/12 131/385/12 137/386/12
f 133/387/8 135/388/8 134/389/8 132/390/8
