# Blender v2.80 (sub 75) OBJ File: 'impulse_cannon.blend'
# www.blender.org
mtllib impulse_cannon_beam.mtl
o Beam_Augment_Continuous_cube.023
v 0.046875 -0.015625 0.125000
v 0.046875 -0.046875 0.125000
v 0.046875 -0.015625 -0.281250
v 0.046875 -0.046875 -0.281250
v 0.015625 -0.015625 -0.281250
v 0.015625 -0.046875 -0.281250
v 0.015625 -0.015625 0.125000
v 0.015625 -0.046875 0.125000
v -0.015625 -0.046875 0.125000
v -0.046875 -0.046875 0.125000
v -0.015625 -0.046875 -0.281250
v -0.046875 -0.046875 -0.281250
v -0.015625 -0.015625 -0.281250
v -0.046875 -0.015625 -0.281250
v -0.015625 -0.015625 0.125000
v -0.046875 -0.015625 0.125000
v -0.046875 0.015625 0.125000
v -0.046875 0.046875 0.125000
v -0.046875 0.015625 -0.281250
v -0.046875 0.046875 -0.281250
v -0.015625 0.015625 -0.281250
v -0.015625 0.046875 -0.281250
v -0.015625 0.015625 0.125000
v -0.015625 0.046875 0.125000
v 0.015625 0.046875 0.125000
v 0.046875 0.046875 0.125000
v 0.015625 0.046875 -0.281250
v 0.046875 0.046875 -0.281250
v 0.015625 0.015625 -0.281250
v 0.046875 0.015625 -0.281250
v 0.015625 0.015625 0.125000
v 0.046875 0.015625 0.125000
vt 0.203125 0.421875
vt 0.203125 0.437500
vt -0.000000 0.437500
vt -0.000000 0.421875
vt -0.000000 0.406250
vt -0.000000 0.390625
vt 0.203125 0.390625
vt 0.203125 0.406250
vt -0.000000 0.375000
vt 0.203125 0.375000
vt 0.203125 0.421875
vt 0.203125 0.437500
vt -0.000000 0.437500
vt -0.000000 0.421875
vt -0.000000 0.406250
vt -0.000000 0.390625
vt 0.203125 0.390625
vt 0.203125 0.406250
vt -0.000000 0.375000
vt 0.203125 0.375000
vt 0.203125 0.421875
vt 0.203125 0.437500
vt -0.000000 0.437500
vt -0.000000 0.421875
vt -0.000000 0.406250
vt -0.000000 0.390625
vt 0.203125 0.390625
vt 0.203125 0.406250
vt -0.000000 0.375000
vt 0.203125 0.375000
vt 0.203125 0.421875
vt 0.203125 0.437500
vt -0.000000 0.437500
vt -0.000000 0.421875
vt -0.000000 0.406250
vt -0.000000 0.390625
vt 0.203125 0.390625
vt 0.203125 0.406250
vt -0.000000 0.375000
vt 0.203125 0.375000
vn 0.0000 1.0000 0.0000
vn 0.0000 -1.0000 -0.0000
vn 1.0000 0.0000 0.0000
vn -1.0000 -0.0000 0.0000
usemtl Material
f 7/1/1 1/2/1 3/3/1 5/4/1
f 6/5/2 4/6/2 2/7/2 8/8/2
f 2/7/3 4/6/3 3/9/3 1/10/3
f 6/5/4 8/8/4 7/1/4 5/4/4
f 15/11/3 9/12/3 11/13/3 13/14/3
f 14/15/4 12/16/4 10/17/4 16/18/4
f 10/17/2 12/16/2 11/19/2 9/20/2
f 14/15/1 16/18/1 15/11/1 13/14/1
f 23/21/2 17/22/2 19/23/2 21/24/2
f 22/25/1 20/26/1 18/27/1 24/28/1
f 18/27/4 20/26/4 19/29/4 17/30/4
f 22/25/3 24/28/3 23/21/3 21/24/3
f 31/31/4 25/32/4 27/33/4 29/34/4
f 30/35/3 28/36/3 26/37/3 32/38/3
f 26/37/1 28/36/1 27/39/1 25/40/1
f 30/35/2 32/38/2 31/31/2 29/34/2
