# Blender v2.80 (sub 75) OBJ File: 'obelisk_side.blend'
# www.blender.org
mtllib obelisk.mtl
o Cube_Cube.001
v 0.000000 -1.500000 1.000000
v 0.000000 1.500000 1.000000
v 0.000000 -1.500000 0.000000
v 0.000000 1.500000 0.000000
v 1.000000 -1.500000 1.000000
v 1.000000 1.500000 1.000000
v 1.000000 -1.500000 0.000000
v 1.000000 1.500000 0.000000
vt 0.999900 0.000100
vt 0.999900 0.999899
vt 0.000100 0.999899
vt 0.000100 0.000100
vt 0.999900 0.000100
vt 0.999900 0.999899
vt 0.000100 0.999899
vt 0.000100 0.000100
vt 0.999900 0.000100
vt 0.999900 0.999899
vt 0.000100 0.999899
vt 0.000100 0.000100
vt 0.999900 0.000100
vt 0.999900 0.999899
vt 0.000100 0.999899
vt 0.000100 0.000100
vn -1.0000 0.0000 0.0000
vn 0.0000 0.0000 -1.0000
vn 1.0000 0.0000 0.0000
vn 0.0000 0.0000 1.0000
usemtl Material
f 1/1/1 2/2/1 4/3/1 3/4/1
f 3/5/2 4/6/2 8/7/2 7/8/2
f 7/9/3 8/10/3 6/11/3 5/12/3
f 5/13/4 6/14/4 2/15/4 1/16/4
