# Blender v2.80 (sub 75) OBJ File: 'monitor.blend'
# www.blender.org
mtllib rift_monitor.mtl
o Base_Cube.007
v 1.000000 0.750000 0.000000
v 1.000000 0.500000 0.000000
v 1.000000 0.750000 1.000000
v 1.000000 0.500000 1.000000
v 0.000000 0.750000 0.000000
v 0.000000 0.500000 0.000000
v 0.000000 0.750000 1.000000
v 0.000000 0.500000 1.000000
v 1.000000 0.250000 0.000000
v 1.000000 0.000000 0.000000
v 1.000000 0.250000 1.000000
v 1.000000 0.000000 1.000000
v 0.000000 0.250000 0.000000
v 0.000000 0.000000 0.000000
v 0.000000 0.250000 1.000000
v 0.000000 0.000000 1.000000
v 0.875000 0.500000 0.125000
v 0.875000 0.250000 0.125000
v 0.875000 0.500000 0.875000
v 0.875000 0.250000 0.875000
v 0.125000 0.500000 0.125000
v 0.125000 0.250000 0.125000
v 0.125000 0.500000 0.875000
v 0.125000 0.250000 0.875000
v 0.187500 0.750000 1.000000
v 0.187500 0.875000 1.000000
v -0.000000 0.750000 1.000000
v -0.000000 0.875000 1.000000
v 0.187500 0.750000 0.812500
v 0.187500 0.875000 0.812500
v -0.000000 0.750000 0.812500
v -0.000000 0.875000 0.812500
v 0.125000 0.875000 1.000000
v 0.125000 1.125000 1.000000
v -0.000000 0.875000 1.000000
v -0.000000 1.125000 1.000000
v 0.125000 0.875000 0.875000
v 0.125000 1.125000 0.875000
v -0.000000 0.875000 0.875000
v -0.000000 1.125000 0.875000
v 0.000000 0.750000 0.187500
v 0.000000 0.875000 0.187500
v 0.000000 0.750000 0.000000
v 0.000000 0.875000 0.000000
v 0.187500 0.750000 0.187500
v 0.187500 0.875000 0.187500
v 0.187500 0.750000 -0.000000
v 0.187500 0.875000 -0.000000
v 0.000000 0.875000 0.125000
v 0.000000 1.125000 0.125000
v 0.000000 0.875000 0.000000
v 0.000000 1.125000 0.000000
v 0.125000 0.875000 0.125000
v 0.125000 1.125000 0.125000
v 0.125000 0.875000 -0.000000
v 0.125000 1.125000 -0.000000
v 0.812500 0.750000 -0.000000
v 0.812500 0.875000 -0.000000
v 1.000000 0.750000 -0.000000
v 1.000000 0.875000 -0.000000
v 0.812500 0.750000 0.187500
v 0.812500 0.875000 0.187500
v 1.000000 0.750000 0.187500
v 1.000000 0.875000 0.187500
v 0.875000 0.875000 -0.000000
v 0.875000 1.125000 -0.000000
v 1.000000 0.875000 -0.000000
v 1.000000 1.125000 -0.000000
v 0.875000 0.875000 0.125000
v 0.875000 1.125000 0.125000
v 1.000000 0.875000 0.125000
v 1.000000 1.125000 0.125000
v 1.000000 0.750000 0.812500
v 1.000000 0.875000 0.812500
v 1.000000 0.750000 1.000000
v 1.000000 0.875000 1.000000
v 0.812500 0.750000 0.812500
v 0.812500 0.875000 0.812500
v 0.812500 0.750000 1.000000
v 0.812500 0.875000 1.000000
v 1.000000 0.875000 0.875000
v 1.000000 1.125000 0.875000
v 1.000000 0.875000 1.000000
v 1.000000 1.125000 1.000000
v 0.875000 0.875000 0.875000
v 0.875000 1.125000 0.875000
v 0.875000 0.875000 1.000000
v 0.875000 1.125000 1.000000
vt 0.500000 -0.000000
vt 1.000000 -0.000000
vt 1.000000 0.500000
vt 0.500000 0.500000
vt 0.500000 0.750000
vt 0.500000 0.875000
vt -0.000000 0.875000
vt -0.000000 0.750000
vt 0.500000 0.750000
vt 0.500000 0.875000
vt -0.000000 0.875000
vt -0.000000 0.750000
vt 1.000000 0.500000
vt 0.500000 0.500000
vt 0.500000 0.000000
vt 1.000000 0.000000
vt 0.500000 0.750000
vt 0.500000 0.875000
vt -0.000000 0.875000
vt -0.000000 0.750000
vt 0.500000 0.750000
vt 0.500000 0.875000
vt -0.000000 0.875000
vt -0.000000 0.750000
vt 0.500000 1.000000
vt 0.500000 0.500000
vt 1.000000 0.500000
vt 1.000000 1.000000
vt 0.500000 0.500000
vt 0.500000 0.625000
vt -0.000000 0.625000
vt -0.000000 0.500000
vt 0.500000 0.500000
vt 0.500000 0.625000
vt -0.000000 0.625000
vt -0.000000 0.500000
vt 1.000000 0.500000
vt 1.000000 1.000000
vt 0.500000 1.000000
vt 0.500000 0.500000
vt 0.500000 0.625000
vt -0.000000 0.625000
vt -0.000000 0.500000
vt 0.500000 0.500000
vt 0.500000 0.625000
vt -0.000000 0.625000
vt -0.000000 0.500000
vt 0.437500 0.625000
vt 0.437500 0.750000
vt 0.062500 0.750000
vt 0.062500 0.625000
vt 0.437500 0.625000
vt 0.437500 0.750000
vt 0.062500 0.750000
vt 0.062500 0.625000
vt 0.437500 0.625000
vt 0.437500 0.750000
vt 0.062500 0.750000
vt 0.062500 0.625000
vt 0.437500 0.625000
vt 0.437500 0.750000
vt 0.062500 0.750000
vt 0.062500 0.625000
vt 0.125000 0.156250
vt 0.125000 0.218750
vt 0.031250 0.218750
vt 0.031250 0.156250
vt 0.437500 0.156250
vt 0.437500 0.218750
vt 0.343750 0.218750
vt 0.343750 0.156250
vt 0.125000 0.156250
vt 0.125000 0.218750
vt 0.031250 0.218750
vt 0.031250 0.156250
vt 0.437500 0.156250
vt 0.437500 0.218750
vt 0.343750 0.218750
vt 0.343750 0.156250
vt 0.187500 0.250000
vt 0.281250 0.250000
vt 0.281250 0.343750
vt 0.187500 0.343750
vt 0.093750 0.218750
vt 0.093750 0.343750
vt 0.031250 0.343750
vt 0.031250 0.218750
vt 0.437500 0.218750
vt 0.437500 0.343750
vt 0.375000 0.343750
vt 0.375000 0.218750
vt 0.093750 0.218750
vt 0.093750 0.343750
vt 0.031250 0.343750
vt 0.031250 0.218750
vt 0.437500 0.218750
vt 0.437500 0.343750
vt 0.375000 0.343750
vt 0.375000 0.218750
vt 0.437500 0.343750
vt 0.375000 0.343750
vt 0.375000 0.281250
vt 0.437500 0.281250
vt 0.125000 0.156250
vt 0.125000 0.218750
vt 0.031250 0.218750
vt 0.031250 0.156250
vt 0.437500 0.156250
vt 0.437500 0.218750
vt 0.343750 0.218750
vt 0.343750 0.156250
vt 0.125000 0.156250
vt 0.125000 0.218750
vt 0.031250 0.218750
vt 0.031250 0.156250
vt 0.437500 0.156250
vt 0.437500 0.218750
vt 0.343750 0.218750
vt 0.343750 0.156250
vt 0.187500 0.250000
vt 0.281250 0.250000
vt 0.281250 0.343750
vt 0.187500 0.343750
vt 0.093750 0.218750
vt 0.093750 0.343750
vt 0.031250 0.343750
vt 0.031250 0.218750
vt 0.437500 0.218750
vt 0.437500 0.343750
vt 0.375000 0.343750
vt 0.375000 0.218750
vt 0.093750 0.218750
vt 0.093750 0.343750
vt 0.031250 0.343750
vt 0.031250 0.218750
vt 0.437500 0.218750
vt 0.437500 0.343750
vt 0.375000 0.343750
vt 0.375000 0.218750
vt 0.437500 0.343750
vt 0.375000 0.343750
vt 0.375000 0.281250
vt 0.437500 0.281250
vt 0.125000 0.156250
vt 0.125000 0.218750
vt 0.031250 0.218750
vt 0.031250 0.156250
vt 0.437500 0.156250
vt 0.437500 0.218750
vt 0.343750 0.218750
vt 0.343750 0.156250
vt 0.125000 0.156250
vt 0.125000 0.218750
vt 0.031250 0.218750
vt 0.031250 0.156250
vt 0.437500 0.156250
vt 0.437500 0.218750
vt 0.343750 0.218750
vt 0.343750 0.156250
vt 0.187500 0.250000
vt 0.281250 0.250000
vt 0.281250 0.343750
vt 0.187500 0.343750
vt 0.093750 0.218750
vt 0.093750 0.343750
vt 0.031250 0.343750
vt 0.031250 0.218750
vt 0.437500 0.218750
vt 0.437500 0.343750
vt 0.375000 0.343750
vt 0.375000 0.218750
vt 0.093750 0.218750
vt 0.093750 0.343750
vt 0.031250 0.343750
vt 0.031250 0.218750
vt 0.437500 0.218750
vt 0.437500 0.343750
vt 0.375000 0.343750
vt 0.375000 0.218750
vt 0.437500 0.343750
vt 0.375000 0.343750
vt 0.375000 0.281250
vt 0.437500 0.281250
vt 0.125000 0.156250
vt 0.125000 0.218750
vt 0.031250 0.218750
vt 0.031250 0.156250
vt 0.437500 0.156250
vt 0.437500 0.218750
vt 0.343750 0.218750
vt 0.343750 0.156250
vt 0.125000 0.156250
vt 0.125000 0.218750
vt 0.031250 0.218750
vt 0.031250 0.156250
vt 0.437500 0.156250
vt 0.437500 0.218750
vt 0.343750 0.218750
vt 0.343750 0.156250
vt 0.187500 0.250000
vt 0.281250 0.250000
vt 0.281250 0.343750
vt 0.187500 0.343750
vt 0.093750 0.218750
vt 0.093750 0.343750
vt 0.031250 0.343750
vt 0.031250 0.218750
vt 0.437500 0.218750
vt 0.437500 0.343750
vt 0.375000 0.343750
vt 0.375000 0.218750
vt 0.093750 0.218750
vt 0.093750 0.343750
vt 0.031250 0.343750
vt 0.031250 0.218750
vt 0.437500 0.218750
vt 0.437500 0.343750
vt 0.375000 0.343750
vt 0.375000 0.218750
vt 0.437500 0.343750
vt 0.375000 0.343750
vt 0.375000 0.281250
vt 0.437500 0.281250
vn 0.0000 1.0000 0.0000
vn 0.0000 0.0000 1.0000
vn -1.0000 0.0000 0.0000
vn 0.0000 -1.0000 0.0000
vn 1.0000 0.0000 0.0000
vn 0.0000 0.0000 -1.0000
usemtl Material
s off
f 1/1/1 5/2/1 7/3/1 3/4/1
f 4/5/2 3/6/2 7/7/2 8/8/2
f 8/9/3 7/10/3 5/11/3 6/12/3
f 6/13/4 2/14/4 4/15/4 8/16/4
f 2/17/5 1/18/5 3/19/5 4/20/5
f 6/21/6 5/22/6 1/23/6 2/24/6
f 9/25/1 13/26/1 15/27/1 11/28/1
f 12/29/2 11/30/2 15/31/2 16/32/2
f 16/33/3 15/34/3 13/35/3 14/36/3
f 14/37/4 10/38/4 12/39/4 16/33/4
f 10/40/5 9/41/5 11/42/5 12/43/5
f 14/44/6 13/45/6 9/46/6 10/47/6
f 20/48/2 19/49/2 23/50/2 24/51/2
f 24/52/3 23/53/3 21/54/3 22/55/3
f 18/56/5 17/57/5 19/58/5 20/59/5
f 22/60/6 21/61/6 17/62/6 18/63/6
f 25/64/2 26/65/2 28/66/2 27/67/2
f 27/68/3 28/69/3 32/70/3 31/71/3
f 31/72/6 32/73/6 30/74/6 29/75/6
f 29/76/5 30/77/5 26/78/5 25/79/5
f 32/80/1 28/81/1 26/82/1 30/83/1
f 33/84/2 34/85/2 36/86/2 35/87/2
f 35/88/3 36/89/3 40/90/3 39/91/3
f 39/92/6 40/93/6 38/94/6 37/95/6
f 37/96/5 38/97/5 34/98/5 33/99/5
f 40/100/1 36/101/1 34/102/1 38/103/1
f 41/104/3 42/105/3 44/106/3 43/107/3
f 43/108/6 44/109/6 48/110/6 47/111/6
f 47/112/5 48/113/5 46/114/5 45/115/5
f 45/116/2 46/117/2 42/118/2 41/119/2
f 48/120/1 44/121/1 42/122/1 46/123/1
f 49/124/3 50/125/3 52/126/3 51/127/3
f 51/128/6 52/129/6 56/130/6 55/131/6
f 55/132/5 56/133/5 54/134/5 53/135/5
f 53/136/2 54/137/2 50/138/2 49/139/2
f 56/140/1 52/141/1 50/142/1 54/143/1
f 57/144/6 58/145/6 60/146/6 59/147/6
f 59/148/5 60/149/5 64/150/5 63/151/5
f 63/152/2 64/153/2 62/154/2 61/155/2
f 61/156/3 62/157/3 58/158/3 57/159/3
f 64/160/1 60/161/1 58/162/1 62/163/1
f 65/164/6 66/165/6 68/166/6 67/167/6
f 67/168/5 68/169/5 72/170/5 71/171/5
f 71/172/2 72/173/2 70/174/2 69/175/2
f 69/176/3 70/177/3 66/178/3 65/179/3
f 72/180/1 68/181/1 66/182/1 70/183/1
f 73/184/5 74/185/5 76/186/5 75/187/5
f 75/188/2 76/189/2 80/190/2 79/191/2
f 79/192/3 80/193/3 78/194/3 77/195/3
f 77/196/6 78/197/6 74/198/6 73/199/6
f 80/200/1 76/201/1 74/202/1 78/203/1
f 81/204/5 82/205/5 84/206/5 83/207/5
f 83/208/2 84/209/2 88/210/2 87/211/2
f 87/212/3 88/213/3 86/214/3 85/215/3
f 85/216/6 86/217/6 82/218/6 81/219/6
f 88/220/1 84/221/1 82/222/1 86/223/1
