# Blender v2.80 (sub 75) OBJ File: 'rift_mover_output.blend'
# www.blender.org
mtllib rift_mover_output.mtl
o Main_Cube.002
v 0.125000 0.250000 0.875000
v 0.125000 0.375000 0.875000
v 0.125000 0.250000 0.125000
v 0.125000 0.375000 0.125000
v 0.875000 0.250000 0.875000
v 0.875000 0.375000 0.875000
v 0.875000 0.250000 0.125000
v 0.875000 0.375000 0.125000
v 0.250000 0.500000 0.750000
v 0.250000 0.500000 0.250000
v 0.750000 0.500000 0.250000
v 0.750000 0.500000 0.750000
vt 0.437500 0.687500
vt 0.437500 0.750000
vt 0.062500 0.750000
vt 0.062500 0.687500
vt 0.437500 0.687500
vt 0.437500 0.750000
vt 0.062500 0.750000
vt 0.062500 0.687500
vt 0.437500 0.687500
vt 0.437500 0.750000
vt 0.062500 0.750000
vt 0.062500 0.687500
vt 0.437500 0.687500
vt 0.437500 0.750000
vt 0.062500 0.750000
vt 0.062500 0.687500
vt 0.375000 0.843750
vt 0.125000 0.843750
vt 0.375000 0.843750
vt 0.125000 0.843750
vt 0.375000 0.843750
vt 0.125000 0.843750
vt 0.375000 0.843750
vt 0.125000 0.843750
vt 1.000000 0.750000
vt 0.999900 0.999900
vt 0.750000 1.000000
vt 0.750000 0.750000
vn -1.0000 0.0000 0.0000
vn 0.0000 0.0000 -1.0000
vn 1.0000 0.0000 0.0000
vn 0.0000 0.0000 1.0000
vn 0.0000 0.7071 -0.7071
vn 0.7071 0.7071 0.0000
vn -0.7071 0.7071 0.0000
vn 0.0000 0.7071 0.7071
vn 0.0000 1.0000 0.0000
usemtl Material
s off
f 1/1/1 2/2/1 4/3/1 3/4/1
f 3/5/2 4/6/2 8/7/2 7/8/2
f 7/9/3 8/10/3 6/11/3 5/12/3
f 5/13/4 6/14/4 2/15/4 1/16/4
f 8/7/5 4/6/5 10/17/5 11/18/5
f 6/11/6 8/10/6 11/19/6 12/20/6
f 4/3/7 2/2/7 9/21/7 10/22/7
f 2/15/8 6/14/8 12/23/8 9/24/8
f 9/25/9 12/26/9 11/27/9 10/28/9
o Base_Plane
v 1.000000 -0.000000 1.000000
v 0.000000 -0.000000 1.000000
v 1.000000 0.000000 0.000000
v 0.000000 0.000000 0.000000
v 1.000000 0.250000 0.000000
v 1.000000 0.250000 1.000000
v -0.000000 0.250000 1.000000
v -0.000000 0.250000 0.000000
vt 0.000000 0.000000
vt 0.500000 0.000000
vt 0.500000 0.500000
vt 0.000000 0.500000
vt 0.000000 0.000000
vt 0.000000 0.500000
vt 0.500000 0.500000
vt 0.500000 0.000000
vt 0.500000 0.500000
vt 0.500000 0.625000
vt 0.000000 0.625000
vt 0.000000 0.500000
vt 0.500000 0.500000
vt 0.500000 0.625000
vt 0.000000 0.625000
vt 0.000000 0.500000
vt 0.500000 0.625000
vt 0.000000 0.625000
vt 0.500000 0.500000
vt 0.500000 0.625000
vt 0.000000 0.625000
vt 0.000000 0.500000
vn 0.0000 -1.0000 -0.0000
vn -0.0000 1.0000 0.0000
vn -1.0000 -0.0000 -0.0000
vn 1.0000 0.0000 0.0000
vn -0.0000 0.0000 -1.0000
vn 0.0000 0.0000 1.0000
usemtl Material
s off
f 13/29/10 14/30/10 16/31/10 15/32/10
f 18/33/11 17/34/11 20/35/11 19/36/11
f 14/37/12 19/38/12 20/39/12 16/40/12
f 15/41/13 17/42/13 18/43/13 13/44/13
f 16/31/14 20/45/14 17/46/14 15/32/14
f 13/47/15 18/48/15 19/49/15 14/50/15
o Arms_Cube.008
v 0.125000 0.750000 0.250000
v 0.125000 0.750000 0.750000
v 0.250000 0.875000 0.750000
v 0.000000 0.750000 0.250000
v 0.000000 0.750000 0.750000
v 0.250000 0.875000 0.250000
v 0.250000 1.000000 0.250000
v 0.250000 1.000000 0.750000
v 0.125000 0.250000 0.750000
v 0.125000 0.250000 0.250000
v 0.000000 0.250000 0.250000
v 0.000000 0.250000 0.750000
v 0.750000 0.750000 0.125000
v 0.250000 0.750000 0.125000
v 0.250000 0.875000 0.250000
v 0.750000 0.750000 0.000000
v 0.250000 0.750000 -0.000000
v 0.750000 0.875000 0.250000
v 0.750000 1.000000 0.250000
v 0.250000 1.000000 0.250000
v 0.250000 0.250000 0.125000
v 0.750000 0.250000 0.125000
v 0.750000 0.250000 0.000000
v 0.250000 0.250000 -0.000000
v 0.250000 0.750000 0.875000
v 0.750000 0.750000 0.875000
v 0.750000 0.875000 0.750000
v 0.250000 0.750000 1.000000
v 0.750000 0.750000 1.000000
v 0.250000 0.875000 0.750000
v 0.250000 1.000000 0.750000
v 0.750000 1.000000 0.750000
v 0.750000 0.250000 0.875000
v 0.250000 0.250000 0.875000
v 0.250000 0.250000 1.000000
v 0.750000 0.250000 1.000000
v 0.875000 0.750000 0.750000
v 0.875000 0.750000 0.250000
v 0.750000 0.875000 0.250000
v 1.000000 0.750000 0.750000
v 1.000000 0.750000 0.250000
v 0.750000 0.875000 0.750000
v 0.750000 1.000000 0.750000
v 0.750000 1.000000 0.250000
v 0.875000 0.250000 0.250000
v 0.875000 0.250000 0.750000
v 1.000000 0.250000 0.750000
v 1.000000 0.250000 0.250000
vt 1.000000 0.250000
vt 1.000000 0.343750
vt 0.750000 0.343750
vt 0.750000 0.250000
vt 0.718750 0.437500
vt 0.781250 0.500000
vt 0.781250 0.562500
vt 0.656250 0.437500
vt 1.000000 0.250000
vt 1.000000 0.437500
vt 0.750000 0.437500
vt 0.750000 0.250000
vt 0.656250 0.437500
vt 0.781250 0.562500
vt 0.781250 0.500000
vt 0.718750 0.437500
vt 1.000000 0.687500
vt 0.750000 0.687500
vt 0.750000 0.625000
vt 1.000000 0.625000
vt 0.750000 0.000000
vt 1.000000 0.000000
vt 0.656250 0.187500
vt 0.718750 0.187500
vt 0.718750 0.437500
vt 0.656250 0.437500
vt 0.718750 0.187500
vt 0.656250 0.187500
vt 0.656250 0.437500
vt 0.718750 0.437500
vt 0.750000 0.000000
vt 1.000000 0.000000
vt 1.000000 0.250000
vt 1.000000 0.343750
vt 0.750000 0.343750
vt 0.750000 0.250000
vt 0.718750 0.437500
vt 0.781250 0.500000
vt 0.781250 0.562500
vt 0.656250 0.437500
vt 1.000000 0.250000
vt 1.000000 0.437500
vt 0.750000 0.437500
vt 0.750000 0.250000
vt 0.656250 0.437500
vt 0.781250 0.562500
vt 0.781250 0.500000
vt 0.718750 0.437500
vt 1.000000 0.687500
vt 0.750000 0.687500
vt 0.750000 0.625000
vt 1.000000 0.625000
vt 0.750000 0.000000
vt 1.000000 0.000000
vt 0.656250 0.187500
vt 0.718750 0.187500
vt 0.718750 0.437500
vt 0.656250 0.437500
vt 0.718750 0.187500
vt 0.656250 0.187500
vt 0.656250 0.437500
vt 0.718750 0.437500
vt 0.750000 0.000000
vt 1.000000 0.000000
vt 1.000000 0.250000
vt 1.000000 0.343750
vt 0.750000 0.343750
vt 0.750000 0.250000
vt 0.718750 0.437500
vt 0.781250 0.500000
vt 0.781250 0.562500
vt 0.656250 0.437500
vt 1.000000 0.250000
vt 1.000000 0.437500
vt 0.750000 0.437500
vt 0.750000 0.250000
vt 0.656250 0.437500
vt 0.781250 0.562500
vt 0.781250 0.500000
vt 0.718750 0.437500
vt 1.000000 0.687500
vt 0.750000 0.687500
vt 0.750000 0.625000
vt 1.000000 0.625000
vt 0.750000 0.000000
vt 1.000000 0.000000
vt 0.656250 0.187500
vt 0.718750 0.187500
vt 0.718750 0.437500
vt 0.656250 0.437500
vt 0.718750 0.187500
vt 0.656250 0.187500
vt 0.656250 0.437500
vt 0.718750 0.437500
vt 0.750000 0.000000
vt 1.000000 0.000000
vt 1.000000 0.250000
vt 1.000000 0.343750
vt 0.750000 0.343750
vt 0.750000 0.250000
vt 0.718750 0.437500
vt 0.781250 0.500000
vt 0.781250 0.562500
vt 0.656250 0.437500
vt 1.000000 0.250000
vt 1.000000 0.437500
vt 0.750000 0.437500
vt 0.750000 0.250000
vt 0.656250 0.437500
vt 0.781250 0.562500
vt 0.781250 0.500000
vt 0.718750 0.437500
vt 1.000000 0.687500
vt 0.750000 0.687500
vt 0.750000 0.625000
vt 1.000000 0.625000
vt 0.750000 0.000000
vt 1.000000 0.000000
vt 0.656250 0.187500
vt 0.718750 0.187500
vt 0.718750 0.437500
vt 0.656250 0.437500
vt 0.718750 0.187500
vt 0.656250 0.187500
vt 0.656250 0.437500
vt 0.718750 0.437500
vt 0.750000 0.000000
vt 1.000000 0.000000
vn 0.7071 -0.7071 0.0000
vn 0.0000 0.0000 1.0000
vn -0.7071 0.7071 -0.0000
vn -0.0000 -0.0000 -1.0000
vn 1.0000 0.0000 -0.0000
vn -1.0000 0.0000 0.0000
vn -0.0000 -0.7071 0.7071
vn 0.0000 0.7071 -0.7071
vn 0.0000 -0.7071 -0.7071
vn -0.0000 0.7071 0.7071
vn -0.7071 -0.7071 0.0000
vn 0.7071 0.7071 0.0000
usemtl Material
s off
f 21/51/16 26/52/16 23/53/16 22/54/16
f 22/55/17 23/56/17 28/57/17 25/58/17
f 25/59/18 28/60/18 27/61/18 24/62/18
f 24/63/19 27/64/19 26/65/19 21/66/19
f 27/67/20 28/68/20 23/69/20 26/70/20
f 21/51/20 22/54/20 29/71/20 30/72/20
f 22/73/17 25/74/17 32/75/17 29/76/17
f 24/77/19 21/78/19 30/79/19 31/80/19
f 25/59/21 24/62/21 31/81/21 32/82/21
f 33/83/22 38/84/22 35/85/22 34/86/22
f 34/87/21 35/88/21 40/89/21 37/90/21
f 37/91/23 40/92/23 39/93/23 36/94/23
f 36/95/20 39/96/20 38/97/20 33/98/20
f 39/99/17 40/100/17 35/101/17 38/102/17
f 33/83/17 34/86/17 41/103/17 42/104/17
f 34/105/21 37/106/21 44/107/21 41/108/21
f 36/109/20 33/110/20 42/111/20 43/112/20
f 37/91/19 36/94/19 43/113/19 44/114/19
f 45/115/24 50/116/24 47/117/24 46/118/24
f 46/119/20 47/120/20 52/121/20 49/122/20
f 49/123/25 52/124/25 51/125/25 48/126/25
f 48/127/21 51/128/21 50/129/21 45/130/21
f 51/131/19 52/132/19 47/133/19 50/134/19
f 45/115/19 46/118/19 53/135/19 54/136/19
f 46/137/20 49/138/20 56/139/20 53/140/20
f 48/141/21 45/142/21 54/143/21 55/144/21
f 49/123/17 48/126/17 55/145/17 56/146/17
f 57/147/26 62/148/26 59/149/26 58/150/26
f 58/151/19 59/152/19 64/153/19 61/154/19
f 61/155/27 64/156/27 63/157/27 60/158/27
f 60/159/17 63/160/17 62/161/17 57/162/17
f 63/163/21 64/164/21 59/165/21 62/166/21
f 57/147/21 58/150/21 65/167/21 66/168/21
f 58/169/19 61/170/19 68/171/19 65/172/19
f 60/173/17 57/174/17 66/175/17 67/176/17
f 61/155/20 60/158/20 67/177/20 68/178/20
