# Blender v2.80 (sub 75) OBJ File: 'rift_mover_input.blend'
# www.blender.org
mtllib rift_mover_input.mtl
o Base_Cube
v 0.687500 0.437500 0.312500
v 0.687500 0.312500 0.312500
v 0.687500 0.437500 0.687500
v 0.687500 0.312500 0.687500
v 0.312500 0.437500 0.312500
v 0.312500 0.312500 0.312500
v 0.312500 0.437500 0.687500
v 0.312500 0.312500 0.687500
v 0.125000 0.125000 0.125000
v 0.125000 0.125000 0.875000
v 0.875000 0.125000 0.125000
v 0.875000 0.125000 0.875000
v 0.125000 0.000000 0.125000
v 0.125000 0.000000 0.875000
v 0.875000 0.000000 0.125000
v 0.875000 0.000000 0.875000
vt 0.093750 0.625000
vt 0.281250 0.625000
vt 0.281250 0.812500
vt 0.093750 0.812500
vt 0.281250 0.562500
vt 0.281250 0.625000
vt 0.093750 0.625000
vt 0.093750 0.562500
vt 0.281250 0.562500
vt 0.281250 0.625000
vt 0.093750 0.625000
vt 0.093750 0.562500
vt 0.000000 0.437500
vt 0.375000 0.437500
vt 0.281250 0.562500
vt 0.281250 0.625000
vt 0.093750 0.625000
vt 0.093750 0.562500
vt 0.281250 0.562500
vt 0.093750 0.562500
vt 0.375000 0.437500
vt 0.000000 0.437500
vt 0.000000 0.375000
vt 0.375000 0.375000
vt 0.000000 0.437500
vt 0.375000 0.437500
vt 0.000000 0.437500
vt 0.375000 0.437500
vt 0.375000 0.375000
vt 0.000000 0.375000
vt 0.000000 0.000000
vt 0.375000 0.000000
vt 0.000000 0.375000
vt 0.375000 0.375000
vt 0.000000 0.375000
vt 0.375000 0.375000
vn 0.0000 1.0000 0.0000
vn 0.0000 0.0000 1.0000
vn -1.0000 0.0000 0.0000
vn -0.7071 0.7071 0.0000
vn 1.0000 0.0000 0.0000
vn 0.0000 0.0000 -1.0000
vn 0.7071 0.7071 0.0000
vn 0.0000 0.7071 -0.7071
vn 0.0000 0.7071 0.7071
vn 0.0000 -1.0000 0.0000
usemtl Material
s off
f 1/1/1 5/2/1 7/3/1 3/4/1
f 4/5/2 3/6/2 7/7/2 8/8/2
f 8/9/3 7/10/3 5/11/3 6/12/3
f 8/9/4 6/12/4 9/13/4 10/14/4
f 2/15/5 1/16/5 3/17/5 4/18/5
f 6/19/6 5/2/6 1/1/6 2/20/6
f 11/21/5 12/22/5 16/23/5 15/24/5
f 2/15/7 4/18/7 12/22/7 11/21/7
f 6/19/8 2/20/8 11/25/8 9/26/8
f 4/5/9 8/8/9 10/27/9 12/28/9
f 13/29/10 15/30/10 16/31/10 14/32/10
f 9/26/6 11/25/6 15/30/6 13/29/6
f 12/28/2 10/27/2 14/33/2 16/34/2
f 10/14/3 9/13/3 13/35/3 14/36/3
o Arms_Cube.006
v 0.750000 0.500000 0.687500
v 0.750000 0.961940 0.878842
v 0.750000 0.452165 0.802985
v 0.750000 0.914104 0.994327
v 0.250000 0.500000 0.687500
v 0.250000 0.961940 0.878842
v 0.250000 0.452165 0.802985
v 0.250000 0.914104 0.994327
v 0.625000 0.312500 0.687500
v 0.625000 0.437500 0.687500
v 0.625000 0.312500 0.937500
v 0.625000 0.437500 0.812500
v 0.375000 0.312500 0.687500
v 0.375000 0.437500 0.687500
v 0.375000 0.312500 0.937500
v 0.375000 0.437500 0.812500
v 0.625000 0.812500 0.937500
v 0.625000 0.500000 0.812500
v 0.375000 0.812500 0.937500
v 0.375000 0.500000 0.812500
v 0.250000 0.500000 0.312500
v 0.250000 0.961940 0.121158
v 0.250000 0.452165 0.197015
v 0.250000 0.914104 0.005673
v 0.750000 0.500000 0.312500
v 0.750000 0.961940 0.121158
v 0.750000 0.452165 0.197015
v 0.750000 0.914104 0.005673
v 0.375000 0.312500 0.312500
v 0.375000 0.437500 0.312500
v 0.375000 0.312500 0.062500
v 0.375000 0.437500 0.187500
v 0.625000 0.312500 0.312500
v 0.625000 0.437500 0.312500
v 0.625000 0.312500 0.062500
v 0.625000 0.437500 0.187500
v 0.375000 0.812500 0.062500
v 0.375000 0.500000 0.187500
v 0.625000 0.812500 0.062500
v 0.625000 0.500000 0.187500
v 0.312500 0.500000 0.750000
v 0.121158 0.961940 0.750000
v 0.197015 0.452165 0.750000
v 0.005673 0.914104 0.750000
v 0.312500 0.500000 0.250000
v 0.121158 0.961940 0.250000
v 0.197015 0.452165 0.250000
v 0.005673 0.914104 0.250000
v 0.312500 0.312500 0.625000
v 0.312500 0.437500 0.625000
v 0.062500 0.312500 0.625000
v 0.187500 0.437500 0.625000
v 0.312500 0.312500 0.375000
v 0.312500 0.437500 0.375000
v 0.062500 0.312500 0.375000
v 0.187500 0.437500 0.375000
v 0.062500 0.812500 0.625000
v 0.187500 0.500000 0.625000
v 0.062500 0.812500 0.375000
v 0.187500 0.500000 0.375000
v 0.687500 0.500000 0.250000
v 0.878842 0.961940 0.250000
v 0.802985 0.452165 0.250000
v 0.994327 0.914104 0.250000
v 0.687500 0.500000 0.750000
v 0.878842 0.961940 0.750000
v 0.802985 0.452165 0.750000
v 0.994327 0.914104 0.750000
v 0.687500 0.312500 0.375000
v 0.687500 0.437500 0.375000
v 0.937500 0.312500 0.375000
v 0.812500 0.437500 0.375000
v 0.687500 0.312500 0.625000
v 0.687500 0.437500 0.625000
v 0.937500 0.312500 0.625000
v 0.812500 0.437500 0.625000
v 0.937500 0.812500 0.375000
v 0.812500 0.500000 0.375000
v 0.937500 0.812500 0.625000
v 0.812500 0.500000 0.625000
vt 0.750000 0.687500
vt 1.000000 0.687500
vt 1.000000 0.750000
vt 0.750000 0.750000
vt 0.750000 1.000000
vt 0.500000 1.000000
vt 0.500000 0.750000
vt 0.750000 0.687500
vt 1.000000 0.687500
vt 1.000000 0.750000
vt 0.750000 0.750000
vt 1.000000 0.750000
vt 1.000000 1.000000
vt 0.750000 1.000000
vt 0.750000 0.750000
vt 0.500000 0.687500
vt 0.500000 0.750000
vt 0.500000 0.687500
vt 0.750000 0.687500
vt 0.750000 0.750000
vt 0.500000 0.750000
vt 0.875000 0.000000
vt 0.875000 0.062500
vt 0.812500 0.062500
vt 0.750000 0.000000
vt 0.937500 0.062500
vt 1.000000 0.000000
vt 1.000000 0.250000
vt 0.937500 0.093750
vt 0.875000 0.062500
vt 0.875000 0.000000
vt 0.625000 0.125000
vt 0.500000 0.125000
vt 0.500000 0.000000
vt 0.625000 0.000000
vt 0.750000 0.062500
vt 0.625000 0.062500
vt 0.625000 0.000000
vt 0.750000 0.000000
vt 0.625000 0.375000
vt 0.500000 0.375000
vt 0.750000 0.093750
vt 0.625000 0.093750
vt 0.812500 0.093750
vt 0.750000 0.250000
vt 0.750000 0.687500
vt 1.000000 0.687500
vt 1.000000 0.750000
vt 0.750000 0.750000
vt 0.750000 1.000000
vt 0.500000 1.000000
vt 0.500000 0.750000
vt 0.750000 0.687500
vt 1.000000 0.687500
vt 1.000000 0.750000
vt 0.750000 0.750000
vt 1.000000 0.750000
vt 1.000000 1.000000
vt 0.750000 1.000000
vt 0.750000 0.750000
vt 0.500000 0.687500
vt 0.500000 0.750000
vt 0.500000 0.687500
vt 0.750000 0.687500
vt 0.750000 0.750000
vt 0.500000 0.750000
vt 0.875000 0.000000
vt 0.875000 0.062500
vt 0.812500 0.062500
vt 0.750000 0.000000
vt 0.937500 0.062500
vt 1.000000 0.000000
vt 1.000000 0.250000
vt 0.937500 0.093750
vt 0.875000 0.062500
vt 0.875000 0.000000
vt 0.625000 0.125000
vt 0.500000 0.125000
vt 0.500000 0.000000
vt 0.625000 0.000000
vt 0.750000 0.062500
vt 0.625000 0.062500
vt 0.625000 0.000000
vt 0.750000 0.000000
vt 0.625000 0.375000
vt 0.500000 0.375000
vt 0.750000 0.093750
vt 0.625000 0.093750
vt 0.812500 0.093750
vt 0.750000 0.250000
vt 0.750000 0.687500
vt 1.000000 0.687500
vt 1.000000 0.750000
vt 0.750000 0.750000
vt 0.750000 1.000000
vt 0.500000 1.000000
vt 0.500000 0.750000
vt 0.750000 0.687500
vt 1.000000 0.687500
vt 1.000000 0.750000
vt 0.750000 0.750000
vt 1.000000 0.750000
vt 1.000000 1.000000
vt 0.750000 1.000000
vt 0.750000 0.750000
vt 0.500000 0.687500
vt 0.500000 0.750000
vt 0.500000 0.687500
vt 0.750000 0.687500
vt 0.750000 0.750000
vt 0.500000 0.750000
vt 0.875000 0.000000
vt 0.875000 0.062500
vt 0.812500 0.062500
vt 0.750000 0.000000
vt 0.937500 0.062500
vt 1.000000 0.000000
vt 1.000000 0.250000
vt 0.937500 0.093750
vt 0.875000 0.062500
vt 0.875000 0.000000
vt 0.625000 0.125000
vt 0.500000 0.125000
vt 0.500000 0.000000
vt 0.625000 0.000000
vt 0.750000 0.062500
vt 0.625000 0.062500
vt 0.625000 0.000000
vt 0.750000 0.000000
vt 0.625000 0.375000
vt 0.500000 0.375000
vt 0.750000 0.093750
vt 0.625000 0.093750
vt 0.812500 0.093750
vt 0.750000 0.250000
vt 0.750000 0.687500
vt 1.000000 0.687500
vt 1.000000 0.750000
vt 0.750000 0.750000
vt 0.750000 1.000000
vt 0.500000 1.000000
vt 0.500000 0.750000
vt 0.750000 0.687500
vt 1.000000 0.687500
vt 1.000000 0.750000
vt 0.750000 0.750000
vt 1.000000 0.750000
vt 1.000000 1.000000
vt 0.750000 1.000000
vt 0.750000 0.750000
vt 0.500000 0.687500
vt 0.500000 0.750000
vt 0.500000 0.687500
vt 0.750000 0.687500
vt 0.750000 0.750000
vt 0.500000 0.750000
vt 0.875000 0.000000
vt 0.875000 0.062500
vt 0.812500 0.062500
vt 0.750000 0.000000
vt 0.937500 0.062500
vt 1.000000 0.000000
vt 1.000000 0.250000
vt 0.937500 0.093750
vt 0.875000 0.062500
vt 0.875000 0.000000
vt 0.625000 0.125000
vt 0.500000 0.125000
vt 0.500000 0.000000
vt 0.625000 0.000000
vt 0.750000 0.062500
vt 0.625000 0.062500
vt 0.625000 0.000000
vt 0.750000 0.000000
vt 0.625000 0.375000
vt 0.500000 0.375000
vt 0.750000 0.093750
vt 0.625000 0.093750
vt 0.812500 0.093750
vt 0.750000 0.250000
vn 1.0000 0.0000 0.0000
vn -0.0000 -0.3827 0.9239
vn -1.0000 -0.0000 -0.0000
vn 0.0000 0.3827 -0.9239
vn 0.0000 -0.9239 -0.3827
vn -0.0000 0.9239 0.3827
vn 0.0000 -1.0000 0.0000
vn 0.0000 1.0000 0.0000
vn -0.0000 -0.0000 1.0000
vn 0.0000 0.0000 -1.0000
vn 0.0000 -0.3827 -0.9239
vn -0.0000 0.3827 0.9239
vn 0.0000 -0.9239 0.3827
vn 0.0000 0.9239 -0.3827
vn -0.9239 -0.3827 -0.0000
vn 0.9239 0.3827 0.0000
vn 0.3827 -0.9239 0.0000
vn -0.3827 0.9239 -0.0000
vn 0.9239 -0.3827 0.0000
vn -0.9239 0.3827 0.0000
vn -0.3827 -0.9239 -0.0000
vn 0.3827 0.9239 0.0000
usemtl Material
s off
f 17/37/11 18/38/11 20/39/11 19/40/11
f 19/40/12 20/41/12 24/42/12 23/43/12
f 23/44/13 24/45/13 22/46/13 21/47/13
f 21/48/14 22/49/14 18/50/14 17/51/14
f 19/52/15 23/44/15 21/47/15 17/53/15
f 24/54/16 20/55/16 18/56/16 22/57/16
f 25/58/11 26/59/11 28/60/11 27/61/11
f 32/62/13 31/63/13 35/64/13 36/65/13
f 31/63/13 32/62/13 30/66/13 29/67/13
f 27/68/17 31/69/17 29/70/17 25/71/17
f 32/72/18 28/73/18 26/74/18 30/75/18
f 31/69/19 27/68/19 33/76/19 35/77/19
f 28/73/20 32/72/20 36/78/20 34/79/20
f 27/61/11 28/60/11 34/80/11 33/81/11
f 37/82/13 38/83/13 40/84/13 39/85/13
f 39/85/21 40/86/21 44/87/21 43/88/21
f 43/89/11 44/90/11 42/91/11 41/92/11
f 41/93/22 42/94/22 38/95/22 37/96/22
f 39/97/23 43/89/23 41/92/23 37/98/23
f 44/99/24 40/100/24 38/101/24 42/102/24
f 45/103/13 46/104/13 48/105/13 47/106/13
f 52/107/11 51/108/11 55/109/11 56/110/11
f 51/108/11 52/107/11 50/111/11 49/112/11
f 47/113/17 51/114/17 49/115/17 45/116/17
f 52/117/18 48/118/18 46/119/18 50/120/18
f 51/114/20 47/113/20 53/121/20 55/122/20
f 48/118/19 52/117/19 56/123/19 54/124/19
f 47/106/13 48/105/13 54/125/13 53/126/13
f 57/127/19 58/128/19 60/129/19 59/130/19
f 59/130/25 60/131/25 64/132/25 63/133/25
f 63/134/20 64/135/20 62/136/20 61/137/20
f 61/138/26 62/139/26 58/140/26 57/141/26
f 59/142/27 63/134/27 61/137/27 57/143/27
f 64/144/28 60/145/28 58/146/28 62/147/28
f 65/148/19 66/149/19 68/150/19 67/151/19
f 72/152/20 71/153/20 75/154/20 76/155/20
f 71/153/20 72/152/20 70/156/20 69/157/20
f 67/158/17 71/159/17 69/160/17 65/161/17
f 72/162/18 68/163/18 66/164/18 70/165/18
f 71/159/13 67/158/13 73/166/13 75/167/13
f 68/163/11 72/162/11 76/168/11 74/169/11
f 67/151/19 68/150/19 74/170/19 73/171/19
f 77/172/20 78/173/20 80/174/20 79/175/20
f 79/175/29 80/176/29 84/177/29 83/178/29
f 83/179/19 84/180/19 82/181/19 81/182/19
f 81/183/30 82/184/30 78/185/30 77/186/30
f 79/187/31 83/179/31 81/182/31 77/188/31
f 84/189/32 80/190/32 78/191/32 82/192/32
f 85/193/20 86/194/20 88/195/20 87/196/20
f 92/197/19 91/198/19 95/199/19 96/200/19
f 91/198/19 92/197/19 90/201/19 89/202/19
f 87/203/17 91/204/17 89/205/17 85/206/17
f 92/207/18 88/208/18 86/209/18 90/210/18
f 91/204/11 87/203/11 93/211/11 95/212/11
f 88/208/13 92/207/13 96/213/13 94/214/13
f 87/196/20 88/195/20 94/215/20 93/216/20
