# Blender v2.80 (sub 75) OBJ File: 'containment_field_model_only.blend'
# www.blender.org
mtllib stability_field_generator_static.mtl
o Base_Cube.006
v 0.187500 0.562500 0.812500
v 0.187500 0.562500 0.187500
v 0.812500 0.562500 0.812500
v 0.812500 0.562500 0.187500
v 0.000000 0.062500 1.000000
v 0.000000 0.312500 1.000000
v 0.000000 0.062500 0.000000
v 0.000000 0.312500 0.000000
v 1.000000 0.062500 1.000000
v 1.000000 0.312500 1.000000
v 1.000000 0.062500 0.000000
v 1.000000 0.312500 0.000000
v 0.750000 0.625000 0.250000
v 0.750000 0.562500 0.250000
v 0.750000 0.625000 0.750000
v 0.750000 0.562500 0.750000
v 0.250000 0.625000 0.250000
v 0.250000 0.562500 0.250000
v 0.250000 0.625000 0.750000
v 0.250000 0.562500 0.750000
v 0.687500 0.687500 0.312500
v 0.687500 0.625000 0.312500
v 0.687500 0.687500 0.687500
v 0.687500 0.625000 0.687500
v 0.312500 0.687500 0.312500
v 0.312500 0.625000 0.312500
v 0.312500 0.687500 0.687500
v 0.312500 0.625000 0.687500
v 0.625000 0.812500 0.375000
v 0.625000 0.687500 0.375000
v 0.625000 0.812500 0.625000
v 0.625000 0.687500 0.625000
v 0.375000 0.812500 0.375000
v 0.375000 0.687500 0.375000
v 0.375000 0.812500 0.625000
v 0.375000 0.687500 0.625000
vt 1.000000 0.687500
vt 1.000000 1.000000
vt 0.687500 1.000000
vt 0.687500 0.687500
vt 0.093750 0.781250
vt 0.000000 0.625000
vt 0.500000 0.625000
vt 0.406250 0.781250
vt 0.500000 0.500000
vt 0.500000 0.625000
vt 0.000000 0.625000
vt 0.000000 0.500000
vt 0.500000 0.500000
vt 0.000000 0.500000
vt 0.500000 0.500000
vt 0.500000 0.625000
vt -0.000000 0.625000
vt -0.000000 0.500000
vt 0.500000 0.500000
vt 0.500000 0.625000
vt 0.000000 0.625000
vt 0.000000 0.500000
vt 0.000000 0.000000
vt 0.500000 0.000000
vt 0.093750 0.781250
vt 0.406250 0.781250
vt 0.093750 0.781250
vt 0.406250 0.781250
vt 0.093750 0.781250
vt 0.406250 0.781250
vt 0.718750 0.718750
vt 0.968750 0.718750
vt 0.968750 0.968750
vt 0.718750 0.968750
vt 0.125000 0.812500
vt 0.125000 0.781250
vt 0.375000 0.781250
vt 0.375000 0.812500
vt 0.375000 0.781250
vt 0.375000 0.812500
vt 0.125000 0.812500
vt 0.125000 0.781250
vt 0.125000 0.812500
vt 0.125000 0.781250
vt 0.375000 0.781250
vt 0.375000 0.812500
vt 0.375000 0.781250
vt 0.375000 0.812500
vt 0.125000 0.812500
vt 0.125000 0.781250
vt 0.750000 0.750000
vt 0.937500 0.750000
vt 0.937500 0.937500
vt 0.750000 0.937500
vt 0.156250 0.843750
vt 0.156250 0.812500
vt 0.343750 0.812500
vt 0.343750 0.843750
vt 0.156250 0.843750
vt 0.156250 0.812500
vt 0.343750 0.812500
vt 0.343750 0.843750
vt 0.156250 0.843750
vt 0.156250 0.812500
vt 0.343750 0.812500
vt 0.343750 0.843750
vt 0.156250 0.843750
vt 0.156250 0.812500
vt 0.343750 0.812500
vt 0.343750 0.843750
vt 0.562500 0.562500
vt 0.687500 0.562500
vt 0.687500 0.687500
vt 0.562500 0.687500
vt 0.500000 0.562500
vt 0.562500 0.562500
vt 0.562500 0.687500
vt 0.500000 0.687500
vt 0.562500 0.750000
vt 0.687500 0.687500
vt 0.687500 0.750000
vt 0.687500 0.500000
vt 0.687500 0.562500
vt 0.562500 0.500000
vt 0.750000 0.687500
vt 0.750000 0.562500
vn 0.0000 1.0000 0.0000
vn 0.0000 0.6000 -0.8000
vn -1.0000 0.0000 0.0000
vn 0.0000 0.0000 -1.0000
vn 1.0000 0.0000 0.0000
vn 0.0000 0.0000 1.0000
vn 0.0000 -1.0000 0.0000
vn 0.8000 0.6000 0.0000
vn 0.0000 0.6000 0.8000
vn -0.8000 0.6000 0.0000
usemtl Material
f 2/1/1 1/2/1 3/3/1 4/4/1
f 4/5/2 12/6/2 8/7/2 2/8/2
f 5/9/3 6/10/3 8/11/3 7/12/3
f 7/13/4 8/7/4 12/6/4 11/14/4
f 11/15/5 12/16/5 10/17/5 9/18/5
f 9/19/6 10/20/6 6/21/6 5/22/6
f 7/23/7 11/24/7 9/19/7 5/22/7
f 3/25/8 10/17/8 12/16/8 4/26/8
f 1/27/9 6/21/9 10/20/9 3/28/9
f 2/29/10 8/11/10 6/10/10 1/30/10
f 13/31/1 17/32/1 19/33/1 15/34/1
f 16/35/6 15/36/6 19/37/6 20/38/6
f 20/39/3 19/40/3 17/41/3 18/42/3
f 14/43/5 13/44/5 15/45/5 16/46/5
f 18/47/4 17/48/4 13/49/4 14/50/4
f 21/51/1 25/52/1 27/53/1 23/54/1
f 24/55/6 23/56/6 27/57/6 28/58/6
f 28/59/3 27/60/3 25/61/3 26/62/3
f 22/63/5 21/64/5 23/65/5 24/66/5
f 26/67/4 25/68/4 21/69/4 22/70/4
f 29/71/1 33/72/1 35/73/1 31/74/1
f 32/75/6 31/76/6 35/77/6 36/78/6
f 36/79/3 35/77/3 33/80/3 34/81/3
f 30/82/5 29/83/5 31/76/5 32/84/5
f 34/85/4 33/80/4 29/83/4 30/86/4
o Power_Ports_Cube.003
v 0.625000 0.625000 0.000000
v 0.375000 0.625000 0.000000
v 0.625000 0.375000 0.000000
v 0.375000 0.375000 0.000000
v 0.375000 0.375000 0.062500
v 0.375000 0.625000 0.062500
v 0.625000 0.625000 0.062500
v 0.625000 0.375000 0.062500
v 0.625000 0.218750 0.187500
v 0.625000 0.468750 0.187500
v 0.375000 0.468750 0.187500
v 0.375000 0.218750 0.187500
v 1.000000 0.625000 0.625000
v 1.000000 0.625000 0.375000
v 1.000000 0.375000 0.625000
v 1.000000 0.375000 0.375000
v 0.937500 0.375000 0.375000
v 0.937500 0.625000 0.375000
v 0.937500 0.625000 0.625000
v 0.937500 0.375000 0.625000
v 0.812500 0.218750 0.625000
v 0.812500 0.468750 0.625000
v 0.812500 0.468750 0.375000
v 0.812500 0.218750 0.375000
v 0.375000 0.625000 1.000000
v 0.625000 0.625000 1.000000
v 0.375000 0.375000 1.000000
v 0.625000 0.375000 1.000000
v 0.625000 0.375000 0.937500
v 0.625000 0.625000 0.937500
v 0.375000 0.625000 0.937500
v 0.375000 0.375000 0.937500
v 0.375000 0.218750 0.812500
v 0.375000 0.468750 0.812500
v 0.625000 0.468750 0.812500
v 0.625000 0.218750 0.812500
v 0.000000 0.625000 0.375000
v 0.000000 0.625000 0.625000
v 0.000000 0.375000 0.375000
v 0.000000 0.375000 0.625000
v 0.062500 0.375000 0.625000
v 0.062500 0.625000 0.625000
v 0.062500 0.625000 0.375000
v 0.062500 0.375000 0.375000
v 0.187500 0.218750 0.375000
v 0.187500 0.468750 0.375000
v 0.187500 0.468750 0.625000
v 0.187500 0.218750 0.625000
v 0.375000 0.000000 0.375000
v 0.625000 0.000000 0.375000
v 0.375000 0.000000 0.625000
v 0.625000 0.000000 0.625000
v 0.375000 0.062500 0.375000
v 0.625000 0.062500 0.375000
v 0.375000 0.062500 0.625000
v 0.625000 0.062500 0.625000
vt 0.562500 0.312500
vt 0.562500 0.500000
vt 0.750000 0.500000
vt 0.750000 0.312500
vt 0.500000 1.000000
vt 0.437500 1.000000
vt 0.437500 0.812500
vt 0.500000 0.812500
vt 0.437500 0.812500
vt 0.500000 0.812500
vt 0.500000 1.000000
vt 0.437500 1.000000
vt 0.437500 0.812500
vt 0.500000 0.812500
vt 0.500000 1.000000
vt 0.437500 1.000000
vt 0.437500 0.812500
vt 0.500000 0.812500
vt 0.500000 1.000000
vt 0.437500 1.000000
vt 0.656250 0.125000
vt 0.656250 0.312500
vt 0.562500 0.195065
vt 0.562500 0.007565
vt 0.656250 0.312500
vt 0.656250 0.125000
vt 0.562500 0.007565
vt 0.562500 0.195065
vt 0.375000 1.000000
vt 0.375000 0.812500
vt 0.375000 1.000000
vt 0.375000 0.812500
vt 0.500000 0.812500
vt 0.500000 1.000000
vt 0.562500 0.312500
vt 0.562500 0.500000
vt 0.750000 0.500000
vt 0.750000 0.312500
vt 0.500000 1.000000
vt 0.437500 1.000000
vt 0.437500 0.812500
vt 0.500000 0.812500
vt 0.437500 0.812500
vt 0.500000 0.812500
vt 0.500000 1.000000
vt 0.437500 1.000000
vt 0.437500 0.812500
vt 0.500000 0.812500
vt 0.500000 1.000000
vt 0.437500 1.000000
vt 0.437500 0.812500
vt 0.500000 0.812500
vt 0.500000 1.000000
vt 0.437500 1.000000
vt 0.656250 0.125000
vt 0.656250 0.312500
vt 0.562500 0.195065
vt 0.562500 0.007565
vt 0.656250 0.312500
vt 0.656250 0.125000
vt 0.562500 0.007565
vt 0.562500 0.195065
vt 0.375000 1.000000
vt 0.375000 0.812500
vt 0.375000 1.000000
vt 0.375000 0.812500
vt 0.500000 0.812500
vt 0.500000 1.000000
vt 0.562500 0.312500
vt 0.562500 0.500000
vt 0.750000 0.500000
vt 0.750000 0.312500
vt 0.500000 1.000000
vt 0.437500 1.000000
vt 0.437500 0.812500
vt 0.500000 0.812500
vt 0.437500 0.812500
vt 0.500000 0.812500
vt 0.500000 1.000000
vt 0.437500 1.000000
vt 0.437500 0.812500
vt 0.500000 0.812500
vt 0.500000 1.000000
vt 0.437500 1.000000
vt 0.437500 0.812500
vt 0.500000 0.812500
vt 0.500000 1.000000
vt 0.437500 1.000000
vt 0.656250 0.125000
vt 0.656250 0.312500
vt 0.562500 0.195065
vt 0.562500 0.007565
vt 0.656250 0.312500
vt 0.656250 0.125000
vt 0.562500 0.007565
vt 0.562500 0.195065
vt 0.375000 1.000000
vt 0.375000 0.812500
vt 0.375000 1.000000
vt 0.375000 0.812500
vt 0.500000 0.812500
vt 0.500000 1.000000
vt 0.562500 0.312500
vt 0.562500 0.500000
vt 0.750000 0.500000
vt 0.750000 0.312500
vt 0.500000 1.000000
vt 0.437500 1.000000
vt 0.437500 0.812500
vt 0.500000 0.812500
vt 0.437500 0.812500
vt 0.500000 0.812500
vt 0.500000 1.000000
vt 0.437500 1.000000
vt 0.437500 0.812500
vt 0.500000 0.812500
vt 0.500000 1.000000
vt 0.437500 1.000000
vt 0.437500 0.812500
vt 0.500000 0.812500
vt 0.500000 1.000000
vt 0.437500 1.000000
vt 0.656250 0.125000
vt 0.656250 0.312500
vt 0.562500 0.195065
vt 0.562500 0.007565
vt 0.656250 0.312500
vt 0.656250 0.125000
vt 0.562500 0.007565
vt 0.562500 0.195065
vt 0.375000 1.000000
vt 0.375000 0.812500
vt 0.375000 1.000000
vt 0.375000 0.812500
vt 0.500000 0.812500
vt 0.500000 1.000000
vt 0.562500 0.312500
vt 0.750000 0.312500
vt 0.750000 0.500000
vt 0.562500 0.500000
vt 0.375000 0.812500
vt 0.437500 0.812500
vt 0.437500 1.000000
vt 0.375000 1.000000
vt 0.437500 1.000000
vt 0.375000 1.000000
vt 0.375000 0.812500
vt 0.437500 0.812500
vt 0.375000 0.812500
vt 0.437500 0.812500
vt 0.437500 1.000000
vt 0.375000 1.000000
vt 0.437500 1.000000
vt 0.375000 1.000000
vt 0.375000 0.812500
vt 0.437500 0.812500
vn 0.0000 0.0000 -1.0000
vn 0.0000 -1.0000 0.0000
vn -1.0000 0.0000 0.0000
vn 0.0000 1.0000 0.0000
vn 1.0000 0.0000 0.0000
vn 0.0000 -0.6247 -0.7809
vn -0.0000 0.6247 0.7809
vn 0.0000 0.0000 1.0000
vn 0.7809 -0.6247 0.0000
vn -0.7809 0.6247 0.0000
vn -0.0000 -0.6247 0.7809
vn 0.0000 0.6247 -0.7809
vn -0.7809 -0.6247 -0.0000
vn 0.7809 0.6247 0.0000
usemtl Material
f 37/87/11 39/88/11 40/89/11 38/90/11
f 39/91/12 44/92/12 41/93/12 40/94/12
f 40/95/13 41/96/13 42/97/13 38/98/13
f 38/99/14 42/100/14 43/101/14 37/102/14
f 37/103/15 43/104/15 44/105/15 39/106/15
f 44/107/15 43/108/15 46/109/15 45/110/15
f 42/111/13 41/112/13 48/113/13 47/114/13
f 41/96/16 44/105/16 45/115/16 48/116/16
f 43/117/17 42/118/17 47/119/17 46/120/17
f 49/121/15 51/122/15 52/123/15 50/124/15
f 51/125/12 56/126/12 53/127/12 52/128/12
f 52/129/11 53/130/11 54/131/11 50/132/11
f 50/133/14 54/134/14 55/135/14 49/136/14
f 49/137/18 55/138/18 56/139/18 51/140/18
f 56/141/18 55/142/18 58/143/18 57/144/18
f 54/145/11 53/146/11 60/147/11 59/148/11
f 53/130/19 56/139/19 57/149/19 60/150/19
f 55/151/20 54/152/20 59/153/20 58/154/20
f 61/155/18 63/156/18 64/157/18 62/158/18
f 63/159/12 68/160/12 65/161/12 64/162/12
f 64/163/15 65/164/15 66/165/15 62/166/15
f 62/167/14 66/168/14 67/169/14 61/170/14
f 61/171/13 67/172/13 68/173/13 63/174/13
f 68/175/13 67/176/13 70/177/13 69/178/13
f 66/179/15 65/180/15 72/181/15 71/182/15
f 65/164/21 68/173/21 69/183/21 72/184/21
f 67/185/22 66/186/22 71/187/22 70/188/22
f 73/189/13 75/190/13 76/191/13 74/192/13
f 75/193/12 80/194/12 77/195/12 76/196/12
f 76/197/18 77/198/18 78/199/18 74/200/18
f 74/201/14 78/202/14 79/203/14 73/204/14
f 73/205/11 79/206/11 80/207/11 75/208/11
f 80/209/11 79/210/11 82/211/11 81/212/11
f 78/213/18 77/214/18 84/215/18 83/216/18
f 77/198/23 80/207/23 81/217/23 84/218/23
f 79/219/24 78/220/24 83/221/24 82/222/24
f 85/223/12 86/224/12 88/225/12 87/226/12
f 86/227/15 90/228/15 92/229/15 88/230/15
f 87/231/13 91/232/13 89/233/13 85/234/13
f 88/235/18 92/236/18 91/237/18 87/238/18
f 85/239/11 89/240/11 90/241/11 86/242/11
