# Blender v2.80 (sub 75) OBJ File: 'containment_field_model_only.blend'
# www.blender.org
mtllib stability_field_generator.mtl
o Arm_North_Cube.001
v 0.625000 0.812500 0.187500
v 0.625000 0.375000 0.187500
v 0.625000 0.750000 0.250000
v 0.625000 0.375000 0.250000
v 0.375000 0.812500 0.187500
v 0.375000 0.375000 0.187500
v 0.375000 0.750000 0.250000
v 0.375000 0.375000 0.250000
v 0.625000 0.812500 0.375000
v 0.625000 0.750000 0.375000
v 0.375000 0.812500 0.375000
v 0.375000 0.750000 0.375000
vt 0.656250 0.218750
vt 0.687500 0.187500
vt 0.750000 0.187500
vt 0.750000 0.218750
vt 1.000000 0.218750
vt 1.000000 0.406250
vt 0.875000 0.406250
vt 0.875000 0.218750
vt 0.687500 0.000000
vt 0.656250 0.000000
vt 1.000000 0.000000
vt 1.000000 0.218750
vt 0.968750 0.187500
vt 0.968750 0.000000
vt 0.875000 0.156250
vt 0.875000 0.375000
vt 0.750000 0.375000
vt 0.750000 0.156250
vt 0.687500 0.125000
vt 0.812500 0.125000
vt 0.812500 0.156250
vt 0.687500 0.156250
vt 0.906250 0.218750
vt 0.906250 0.187500
vt 0.875000 0.468750
vt 0.750000 0.468750
vt 1.000000 0.468750
vt 0.875000 0.468750
vn -1.0000 0.0000 0.0000
vn 0.0000 0.0000 1.0000
vn 1.0000 0.0000 0.0000
vn 0.0000 0.0000 -1.0000
vn 0.0000 1.0000 0.0000
vn 0.0000 -1.0000 0.0000
usemtl Material
s off
f 5/1/1 7/2/1 12/3/1 11/4/1
f 4/5/2 3/6/2 7/7/2 8/8/2
f 8/9/1 7/2/1 5/1/1 6/10/1
f 2/11/3 1/12/3 3/13/3 4/14/3
f 6/15/4 5/16/4 1/17/4 2/18/4
f 9/19/2 11/20/2 12/21/2 10/22/2
f 3/13/3 1/12/3 9/23/3 10/24/3
f 1/17/5 5/16/5 11/25/5 9/26/5
f 7/7/6 3/6/6 10/27/6 12/28/6
o Base_Cube.006
v 0.187500 0.562500 0.812500
v 0.187500 0.562500 0.187500
v 0.812500 0.562500 0.812500
v 0.812500 0.562500 0.187500
v 0.000000 0.062500 1.000000
v 0.000000 0.312500 1.000000
v 0.000000 0.062500 0.000000
v 0.000000 0.312500 0.000000
v 1.000000 0.062500 1.000000
v 1.000000 0.312500 1.000000
v 1.000000 0.062500 0.000000
v 1.000000 0.312500 0.000000
v 0.750000 0.625000 0.250000
v 0.750000 0.562500 0.250000
v 0.750000 0.625000 0.750000
v 0.750000 0.562500 0.750000
v 0.250000 0.625000 0.250000
v 0.250000 0.562500 0.250000
v 0.250000 0.625000 0.750000
v 0.250000 0.562500 0.750000
v 0.687500 0.687500 0.312500
v 0.687500 0.625000 0.312500
v 0.687500 0.687500 0.687500
v 0.687500 0.625000 0.687500
v 0.312500 0.687500 0.312500
v 0.312500 0.625000 0.312500
v 0.312500 0.687500 0.687500
v 0.312500 0.625000 0.687500
v 0.625000 0.812500 0.375000
v 0.625000 0.687500 0.375000
v 0.625000 0.812500 0.625000
v 0.625000 0.687500 0.625000
v 0.375000 0.812500 0.375000
v 0.375000 0.687500 0.375000
v 0.375000 0.812500 0.625000
v 0.375000 0.687500 0.625000
vt 1.000000 0.687500
vt 1.000000 1.000000
vt 0.687500 1.000000
vt 0.687500 0.687500
vt 0.093750 0.781250
vt 0.000000 0.625000
vt 0.500000 0.625000
vt 0.406250 0.781250
vt 0.500000 0.500000
vt 0.500000 0.625000
vt 0.000000 0.625000
vt 0.000000 0.500000
vt 0.500000 0.500000
vt 0.000000 0.500000
vt 0.500000 0.500000
vt 0.500000 0.625000
vt -0.000000 0.625000
vt -0.000000 0.500000
vt 0.500000 0.500000
vt 0.500000 0.625000
vt 0.000000 0.625000
vt 0.000000 0.500000
vt 0.000000 0.000000
vt 0.500000 0.000000
vt 0.093750 0.781250
vt 0.406250 0.781250
vt 0.093750 0.781250
vt 0.406250 0.781250
vt 0.093750 0.781250
vt 0.406250 0.781250
vt 0.718750 0.718750
vt 0.968750 0.718750
vt 0.968750 0.968750
vt 0.718750 0.968750
vt 0.125000 0.812500
vt 0.125000 0.781250
vt 0.375000 0.781250
vt 0.375000 0.812500
vt 0.375000 0.781250
vt 0.375000 0.812500
vt 0.125000 0.812500
vt 0.125000 0.781250
vt 0.125000 0.812500
vt 0.125000 0.781250
vt 0.375000 0.781250
vt 0.375000 0.812500
vt 0.375000 0.781250
vt 0.375000 0.812500
vt 0.125000 0.812500
vt 0.125000 0.781250
vt 0.750000 0.750000
vt 0.937500 0.750000
vt 0.937500 0.937500
vt 0.750000 0.937500
vt 0.156250 0.843750
vt 0.156250 0.812500
vt 0.343750 0.812500
vt 0.343750 0.843750
vt 0.156250 0.843750
vt 0.156250 0.812500
vt 0.343750 0.812500
vt 0.343750 0.843750
vt 0.156250 0.843750
vt 0.156250 0.812500
vt 0.343750 0.812500
vt 0.343750 0.843750
vt 0.156250 0.843750
vt 0.156250 0.812500
vt 0.343750 0.812500
vt 0.343750 0.843750
vt 0.562500 0.562500
vt 0.687500 0.562500
vt 0.687500 0.687500
vt 0.562500 0.687500
vt 0.500000 0.562500
vt 0.562500 0.562500
vt 0.562500 0.687500
vt 0.500000 0.687500
vt 0.562500 0.750000
vt 0.687500 0.687500
vt 0.687500 0.750000
vt 0.687500 0.500000
vt 0.687500 0.562500
vt 0.562500 0.500000
vt 0.750000 0.687500
vt 0.750000 0.562500
vn 0.0000 1.0000 0.0000
vn 0.0000 0.6000 -0.8000
vn -1.0000 0.0000 0.0000
vn 0.0000 0.0000 -1.0000
vn 1.0000 0.0000 0.0000
vn 0.0000 0.0000 1.0000
vn 0.0000 -1.0000 0.0000
vn 0.8000 0.6000 0.0000
vn 0.0000 0.6000 0.8000
vn -0.8000 0.6000 0.0000
usemtl Material
s off
f 14/29/7 13/30/7 15/31/7 16/32/7
f 16/33/8 24/34/8 20/35/8 14/36/8
f 17/37/9 18/38/9 20/39/9 19/40/9
f 19/41/10 20/35/10 24/34/10 23/42/10
f 23/43/11 24/44/11 22/45/11 21/46/11
f 21/47/12 22/48/12 18/49/12 17/50/12
f 19/51/13 23/52/13 21/47/13 17/50/13
f 15/53/14 22/45/14 24/44/14 16/54/14
f 13/55/15 18/49/15 22/48/15 15/56/15
f 14/57/16 20/39/16 18/38/16 13/58/16
f 25/59/7 29/60/7 31/61/7 27/62/7
f 28/63/12 27/64/12 31/65/12 32/66/12
f 32/67/9 31/68/9 29/69/9 30/70/9
f 26/71/11 25/72/11 27/73/11 28/74/11
f 30/75/10 29/76/10 25/77/10 26/78/10
f 33/79/7 37/80/7 39/81/7 35/82/7
f 36/83/12 35/84/12 39/85/12 40/86/12
f 40/87/9 39/88/9 37/89/9 38/90/9
f 34/91/11 33/92/11 35/93/11 36/94/11
f 38/95/10 37/96/10 33/97/10 34/98/10
f 41/99/7 45/100/7 47/101/7 43/102/7
f 44/103/12 43/104/12 47/105/12 48/106/12
f 48/107/9 47/105/9 45/108/9 46/109/9
f 42/110/11 41/111/11 43/104/11 44/112/11
f 46/113/10 45/108/10 41/111/10 42/114/10
o Arm_South_Cube.008
v 0.375000 0.812500 0.812500
v 0.375000 0.375000 0.812500
v 0.375000 0.750000 0.750000
v 0.375000 0.375000 0.750000
v 0.625000 0.812500 0.812500
v 0.625000 0.375000 0.812500
v 0.625000 0.750000 0.750000
v 0.625000 0.375000 0.750000
v 0.375000 0.750000 0.625000
v 0.625000 0.750000 0.625000
v 0.375000 0.812500 0.625000
v 0.625000 0.812500 0.625000
vt 0.656250 0.218750
vt 0.687500 0.187500
vt 0.750000 0.187500
vt 0.750000 0.218750
vt 1.000000 0.218750
vt 1.000000 0.406250
vt 0.875000 0.406250
vt 0.875000 0.218750
vt 0.687500 -0.000000
vt 0.656250 -0.000000
vt 1.000000 0.000000
vt 1.000000 0.218750
vt 0.968750 0.187500
vt 0.968750 0.000000
vt 0.875000 0.156250
vt 0.875000 0.375000
vt 0.750000 0.375000
vt 0.750000 0.156250
vt 0.687500 0.125000
vt 0.812500 0.125000
vt 0.812500 0.156250
vt 0.687500 0.156250
vt 0.906250 0.218750
vt 0.906250 0.187500
vt 0.875000 0.468750
vt 0.750000 0.468750
vt 1.000000 0.468750
vt 0.875000 0.468750
vn 1.0000 0.0000 0.0000
vn 0.0000 0.0000 -1.0000
vn -1.0000 0.0000 0.0000
vn 0.0000 0.0000 1.0000
vn 0.0000 1.0000 0.0000
vn 0.0000 -1.0000 0.0000
usemtl Material
s off
f 53/115/17 55/116/17 58/117/17 60/118/17
f 52/119/18 51/120/18 55/121/18 56/122/18
f 56/123/17 55/116/17 53/115/17 54/124/17
f 50/125/19 49/126/19 51/127/19 52/128/19
f 54/129/20 53/130/20 49/131/20 50/132/20
f 59/133/18 60/134/18 58/135/18 57/136/18
f 51/127/19 49/126/19 59/137/19 57/138/19
f 49/131/21 53/130/21 60/139/21 59/140/21
f 55/121/22 51/120/22 57/141/22 58/142/22
o Arm_West_Cube.009
v 0.187500 0.812500 0.375000
v 0.187500 0.375000 0.375000
v 0.250000 0.750000 0.375000
v 0.250000 0.375000 0.375000
v 0.187500 0.812500 0.625000
v 0.187500 0.375000 0.625000
v 0.250000 0.750000 0.625000
v 0.250000 0.375000 0.625000
v 0.375000 0.812500 0.375000
v 0.375000 0.750000 0.375000
v 0.375000 0.812500 0.625000
v 0.375000 0.750000 0.625000
vt 0.656250 0.218750
vt 0.687500 0.187500
vt 0.750000 0.187500
vt 0.750000 0.218750
vt 1.000000 0.218750
vt 1.000000 0.406250
vt 0.875000 0.406250
vt 0.875000 0.218750
vt 0.687500 -0.000000
vt 0.656250 -0.000000
vt 1.000000 0.000000
vt 1.000000 0.218750
vt 0.968750 0.187500
vt 0.968750 0.000000
vt 0.875000 0.156250
vt 0.875000 0.375000
vt 0.750000 0.375000
vt 0.750000 0.156250
vt 0.687500 0.125000
vt 0.812500 0.125000
vt 0.812500 0.156250
vt 0.687500 0.156250
vt 0.906250 0.218750
vt 0.906250 0.187500
vt 0.875000 0.468750
vt 0.750000 0.468750
vt 1.000000 0.468750
vt 0.875000 0.468750
vn 0.0000 0.0000 1.0000
vn 1.0000 0.0000 0.0000
vn 0.0000 0.0000 -1.0000
vn -1.0000 0.0000 0.0000
vn 0.0000 1.0000 0.0000
vn 0.0000 -1.0000 0.0000
usemtl Material
s off
f 65/143/23 67/144/23 72/145/23 71/146/23
f 64/147/24 63/148/24 67/149/24 68/150/24
f 68/151/23 67/144/23 65/143/23 66/152/23
f 62/153/25 61/154/25 63/155/25 64/156/25
f 66/157/26 65/158/26 61/159/26 62/160/26
f 69/161/24 71/162/24 72/163/24 70/164/24
f 63/155/25 61/154/25 69/165/25 70/166/25
f 61/159/27 65/158/27 71/167/27 69/168/27
f 67/149/28 63/148/28 70/169/28 72/170/28
o Arm_East_Cube.010
v 0.812500 0.812500 0.625000
v 0.812500 0.375000 0.625000
v 0.750000 0.750000 0.625000
v 0.750000 0.375000 0.625000
v 0.812500 0.812500 0.375000
v 0.812500 0.375000 0.375000
v 0.750000 0.750000 0.375000
v 0.750000 0.375000 0.375000
v 0.625000 0.812500 0.625000
v 0.625000 0.750000 0.625000
v 0.625000 0.812500 0.375000
v 0.625000 0.750000 0.375000
vt 0.656250 0.218750
vt 0.687500 0.187500
vt 0.750000 0.187500
vt 0.750000 0.218750
vt 1.000000 0.218750
vt 1.000000 0.406250
vt 0.875000 0.406250
vt 0.875000 0.218750
vt 0.687500 0.000000
vt 0.656250 0.000000
vt 1.000000 0.000000
vt 1.000000 0.218750
vt 0.968750 0.187500
vt 0.968750 0.000000
vt 0.875000 0.156250
vt 0.875000 0.375000
vt 0.750000 0.375000
vt 0.750000 0.156250
vt 0.687500 0.125000
vt 0.812500 0.125000
vt 0.812500 0.156250
vt 0.687500 0.156250
vt 0.906250 0.218750
vt 0.906250 0.187500
vt 0.875000 0.468750
vt 0.750000 0.468750
vt 1.000000 0.468750
vt 0.875000 0.468750
vn 0.0000 0.0000 -1.0000
vn -1.0000 0.0000 0.0000
vn 0.0000 0.0000 1.0000
vn 1.0000 0.0000 0.0000
vn 0.0000 1.0000 0.0000
vn 0.0000 -1.0000 0.0000
usemtl Material
s off
f 77/171/29 79/172/29 84/173/29 83/174/29
f 76/175/30 75/176/30 79/177/30 80/178/30
f 80/179/29 79/172/29 77/171/29 78/180/29
f 74/181/31 73/182/31 75/183/31 76/184/31
f 78/185/32 77/186/32 73/187/32 74/188/32
f 81/189/30 83/190/30 84/191/30 82/192/30
f 75/183/31 73/182/31 81/193/31 82/194/31
f 73/187/33 77/186/33 83/195/33 81/196/33
f 79/177/34 75/176/34 82/197/34 84/198/34
o Corners_Cube.017
v 0.375000 0.562500 0.250000
v 0.375000 0.812500 0.250000
v 0.250000 0.562500 0.250000
v 0.250000 0.812500 0.250000
v 0.375000 0.562500 0.187500
v 0.375000 0.812500 0.187500
v 0.187500 0.562500 0.187500
v 0.187500 0.812500 0.187500
v 0.250000 0.812500 0.375000
v 0.250000 0.562500 0.375000
v 0.187500 0.562500 0.375000
v 0.187500 0.812500 0.375000
v 0.625000 0.562500 0.750000
v 0.625000 0.812500 0.750000
v 0.750000 0.562500 0.750000
v 0.750000 0.812500 0.750000
v 0.625000 0.562500 0.812500
v 0.625000 0.812500 0.812500
v 0.812500 0.562500 0.812500
v 0.812500 0.812500 0.812500
v 0.750000 0.812500 0.625000
v 0.750000 0.562500 0.625000
v 0.812500 0.562500 0.625000
v 0.812500 0.812500 0.625000
v 0.750000 0.562500 0.375000
v 0.750000 0.812500 0.375000
v 0.750000 0.562500 0.250000
v 0.750000 0.812500 0.250000
v 0.812500 0.562500 0.375000
v 0.812500 0.812500 0.375000
v 0.812500 0.562500 0.187500
v 0.812500 0.812500 0.187500
v 0.625000 0.812500 0.250000
v 0.625000 0.562500 0.250000
v 0.625000 0.562500 0.187500
v 0.625000 0.812500 0.187500
v 0.250000 0.562500 0.625000
v 0.250000 0.812500 0.625000
v 0.250000 0.562500 0.750000
v 0.250000 0.812500 0.750000
v 0.187500 0.562500 0.625000
v 0.187500 0.812500 0.625000
v 0.187500 0.562500 0.812500
v 0.187500 0.812500 0.812500
v 0.375000 0.812500 0.750000
v 0.375000 0.562500 0.750000
v 0.375000 0.562500 0.812500
v 0.375000 0.812500 0.812500
vt 0.750000 0.125000
vt 0.750000 -0.000000
vt 0.812500 -0.000000
vt 0.812500 0.125000
vt 0.812500 0.656250
vt 0.781250 0.687500
vt 0.781250 0.593750
vt 0.812500 0.593750
vt 0.875000 0.125000
vt 0.875000 -0.000000
vt 0.968750 -0.000000
vt 0.968750 0.125000
vt 0.843750 0.125000
vt 0.843750 -0.000000
vt 0.875000 -0.000000
vt 0.875000 0.125000
vt 0.875000 0.656250
vt 0.875000 0.687500
vt 0.812500 0.125000
vt 0.812500 -0.000000
vt 0.843750 -0.000000
vt 0.843750 0.125000
vt 0.875000 0.125000
vt 0.875000 -0.000000
vt 0.937500 -0.000000
vt 0.937500 0.125000
vt 0.718750 0.125000
vt 0.718750 -0.000000
vt 0.812500 -0.000000
vt 0.812500 0.125000
vt 0.750000 0.125000
vt 0.750000 -0.000000
vt 0.812500 -0.000000
vt 0.812500 0.125000
vt 0.968750 0.500000
vt 1.000000 0.468750
vt 1.000000 0.562500
vt 0.968750 0.562500
vt 0.968750 -0.000000
vt 0.968750 0.125000
vt 0.875000 0.125000
vt 0.875000 -0.000000
vt 0.843750 0.125000
vt 0.843750 -0.000000
vt 0.875000 -0.000000
vt 0.875000 0.125000
vt 0.906250 0.500000
vt 0.906250 0.468750
vt 0.812500 0.125000
vt 0.812500 -0.000000
vt 0.843750 -0.000000
vt 0.843750 0.125000
vt 0.875000 0.125000
vt 0.875000 0.000000
vt 0.937500 0.000000
vt 0.937500 0.125000
vt 0.718750 0.125000
vt 0.718750 -0.000000
vt 0.812500 -0.000000
vt 0.812500 0.125000
vt 0.750000 0.125000
vt 0.750000 -0.000000
vt 0.812500 -0.000000
vt 0.812500 0.125000
vt 0.968750 0.656250
vt 1.000000 0.687500
vt 0.906250 0.687500
vt 0.906250 0.656250
vt 0.968750 -0.000000
vt 0.968750 0.125000
vt 0.875000 0.125000
vt 0.875000 -0.000000
vt 0.843750 0.125000
vt 0.843750 -0.000000
vt 0.875000 -0.000000
vt 0.875000 0.125000
vt 0.968750 0.593750
vt 1.000000 0.593750
vt 0.812500 0.125000
vt 0.812500 -0.000000
vt 0.843750 -0.000000
vt 0.843750 0.125000
vt 0.875000 0.125000
vt 0.875000 -0.000000
vt 0.937500 -0.000000
vt 0.937500 0.125000
vt 0.718750 0.125000
vt 0.718750 -0.000000
vt 0.812500 -0.000000
vt 0.812500 0.125000
vt 0.750000 0.125000
vt 0.750000 -0.000000
vt 0.812500 -0.000000
vt 0.812500 0.125000
vt 0.812500 0.500000
vt 0.781250 0.468750
vt 0.875000 0.468750
vt 0.875000 0.500000
vt 0.968750 -0.000000
vt 0.968750 0.125000
vt 0.875000 0.125000
vt 0.875000 -0.000000
vt 0.843750 0.125000
vt 0.843750 -0.000000
vt 0.875000 -0.000000
vt 0.875000 0.125000
vt 0.812500 0.562500
vt 0.781250 0.562500
vt 0.812500 0.125000
vt 0.812500 -0.000000
vt 0.843750 -0.000000
vt 0.843750 0.125000
vt 0.875000 0.125000
vt 0.875000 0.000000
vt 0.937500 0.000000
vt 0.937500 0.125000
vt 0.718750 0.125000
vt 0.718750 -0.000000
vt 0.812500 -0.000000
vt 0.812500 0.125000
vn 0.0000 0.0000 1.0000
vn 0.0000 1.0000 0.0000
vn 0.0000 0.0000 -1.0000
vn 1.0000 0.0000 0.0000
vn -1.0000 0.0000 -0.0000
usemtl Material
s off
f 85/199/35 86/200/35 88/201/35 87/202/35
f 88/203/36 92/204/36 96/205/36 93/206/36
f 91/207/37 92/208/37 90/209/37 89/210/37
f 89/211/38 90/212/38 86/213/38 85/214/38
f 92/204/36 88/203/36 86/215/36 90/216/36
f 94/217/35 93/218/35 96/219/35 95/220/35
f 87/221/38 88/222/38 93/223/38 94/224/38
f 92/225/39 91/226/39 95/227/39 96/228/39
f 97/229/37 98/230/37 100/231/37 99/232/37
f 100/233/36 104/234/36 108/235/36 105/236/36
f 103/237/35 104/238/35 102/239/35 101/240/35
f 101/241/39 102/242/39 98/243/39 97/244/39
f 104/234/36 100/233/36 98/245/36 102/246/36
f 106/247/37 105/248/37 108/249/37 107/250/37
f 99/251/39 100/252/39 105/253/39 106/254/39
f 104/255/38 103/256/38 107/257/38 108/258/38
f 109/259/39 110/260/39 112/261/39 111/262/39
f 112/263/36 116/264/36 120/265/36 117/266/36
f 115/267/38 116/268/38 114/269/38 113/270/38
f 113/271/35 114/272/35 110/273/35 109/274/35
f 116/264/36 112/263/36 110/275/36 114/276/36
f 118/277/39 117/278/39 120/279/39 119/280/39
f 111/281/35 112/282/35 117/283/35 118/284/35
f 116/285/37 115/286/37 119/287/37 120/288/37
f 121/289/38 122/290/38 124/291/38 123/292/38
f 124/293/36 128/294/36 132/295/36 129/296/36
f 127/297/39 128/298/39 126/299/39 125/300/39
f 125/301/37 126/302/37 122/303/37 121/304/37
f 128/294/36 124/293/36 122/305/36 126/306/36
f 130/307/38 129/308/38 132/309/38 131/310/38
f 123/311/37 124/312/37 129/313/37 130/314/37
f 128/315/35 127/316/35 131/317/35 132/318/35
o Power_Ports_Cube.003
v 0.625000 0.625000 0.000000
v 0.375000 0.625000 0.000000
v 0.625000 0.375000 0.000000
v 0.375000 0.375000 0.000000
v 0.375000 0.375000 0.062500
v 0.375000 0.625000 0.062500
v 0.625000 0.625000 0.062500
v 0.625000 0.375000 0.062500
v 0.625000 0.218750 0.187500
v 0.625000 0.468750 0.187500
v 0.375000 0.468750 0.187500
v 0.375000 0.218750 0.187500
v 1.000000 0.625000 0.625000
v 1.000000 0.625000 0.375000
v 1.000000 0.375000 0.625000
v 1.000000 0.375000 0.375000
v 0.937500 0.375000 0.375000
v 0.937500 0.625000 0.375000
v 0.937500 0.625000 0.625000
v 0.937500 0.375000 0.625000
v 0.812500 0.218750 0.625000
v 0.812500 0.468750 0.625000
v 0.812500 0.468750 0.375000
v 0.812500 0.218750 0.375000
v 0.375000 0.625000 1.000000
v 0.625000 0.625000 1.000000
v 0.375000 0.375000 1.000000
v 0.625000 0.375000 1.000000
v 0.625000 0.375000 0.937500
v 0.625000 0.625000 0.937500
v 0.375000 0.625000 0.937500
v 0.375000 0.375000 0.937500
v 0.375000 0.218750 0.812500
v 0.375000 0.468750 0.812500
v 0.625000 0.468750 0.812500
v 0.625000 0.218750 0.812500
v 0.000000 0.625000 0.375000
v 0.000000 0.625000 0.625000
v 0.000000 0.375000 0.375000
v 0.000000 0.375000 0.625000
v 0.062500 0.375000 0.625000
v 0.062500 0.625000 0.625000
v 0.062500 0.625000 0.375000
v 0.062500 0.375000 0.375000
v 0.187500 0.218750 0.375000
v 0.187500 0.468750 0.375000
v 0.187500 0.468750 0.625000
v 0.187500 0.218750 0.625000
v 0.375000 0.000000 0.375000
v 0.625000 0.000000 0.375000
v 0.375000 0.000000 0.625000
v 0.625000 0.000000 0.625000
v 0.375000 0.062500 0.375000
v 0.625000 0.062500 0.375000
v 0.375000 0.062500 0.625000
v 0.625000 0.062500 0.625000
vt 0.562500 0.312500
vt 0.562500 0.500000
vt 0.750000 0.500000
vt 0.750000 0.312500
vt 0.500000 1.000000
vt 0.437500 1.000000
vt 0.437500 0.812500
vt 0.500000 0.812500
vt 0.437500 0.812500
vt 0.500000 0.812500
vt 0.500000 1.000000
vt 0.437500 1.000000
vt 0.437500 0.812500
vt 0.500000 0.812500
vt 0.500000 1.000000
vt 0.437500 1.000000
vt 0.437500 0.812500
vt 0.500000 0.812500
vt 0.500000 1.000000
vt 0.437500 1.000000
vt 0.656250 0.125000
vt 0.656250 0.312500
vt 0.562500 0.195065
vt 0.562500 0.007565
vt 0.656250 0.312500
vt 0.656250 0.125000
vt 0.562500 0.007565
vt 0.562500 0.195065
vt 0.375000 1.000000
vt 0.375000 0.812500
vt 0.375000 1.000000
vt 0.375000 0.812500
vt 0.500000 0.812500
vt 0.500000 1.000000
vt 0.562500 0.312500
vt 0.562500 0.500000
vt 0.750000 0.500000
vt 0.750000 0.312500
vt 0.500000 1.000000
vt 0.437500 1.000000
vt 0.437500 0.812500
vt 0.500000 0.812500
vt 0.437500 0.812500
vt 0.500000 0.812500
vt 0.500000 1.000000
vt 0.437500 1.000000
vt 0.437500 0.812500
vt 0.500000 0.812500
vt 0.500000 1.000000
vt 0.437500 1.000000
vt 0.437500 0.812500
vt 0.500000 0.812500
vt 0.500000 1.000000
vt 0.437500 1.000000
vt 0.656250 0.125000
vt 0.656250 0.312500
vt 0.562500 0.195065
vt 0.562500 0.007565
vt 0.656250 0.312500
vt 0.656250 0.125000
vt 0.562500 0.007565
vt 0.562500 0.195065
vt 0.375000 1.000000
vt 0.375000 0.812500
vt 0.375000 1.000000
vt 0.375000 0.812500
vt 0.500000 0.812500
vt 0.500000 1.000000
vt 0.562500 0.312500
vt 0.562500 0.500000
vt 0.750000 0.500000
vt 0.750000 0.312500
vt 0.500000 1.000000
vt 0.437500 1.000000
vt 0.437500 0.812500
vt 0.500000 0.812500
vt 0.437500 0.812500
vt 0.500000 0.812500
vt 0.500000 1.000000
vt 0.437500 1.000000
vt 0.437500 0.812500
vt 0.500000 0.812500
vt 0.500000 1.000000
vt 0.437500 1.000000
vt 0.437500 0.812500
vt 0.500000 0.812500
vt 0.500000 1.000000
vt 0.437500 1.000000
vt 0.656250 0.125000
vt 0.656250 0.312500
vt 0.562500 0.195065
vt 0.562500 0.007565
vt 0.656250 0.312500
vt 0.656250 0.125000
vt 0.562500 0.007565
vt 0.562500 0.195065
vt 0.375000 1.000000
vt 0.375000 0.812500
vt 0.375000 1.000000
vt 0.375000 0.812500
vt 0.500000 0.812500
vt 0.500000 1.000000
vt 0.562500 0.312500
vt 0.562500 0.500000
vt 0.750000 0.500000
vt 0.750000 0.312500
vt 0.500000 1.000000
vt 0.437500 1.000000
vt 0.437500 0.812500
vt 0.500000 0.812500
vt 0.437500 0.812500
vt 0.500000 0.812500
vt 0.500000 1.000000
vt 0.437500 1.000000
vt 0.437500 0.812500
vt 0.500000 0.812500
vt 0.500000 1.000000
vt 0.437500 1.000000
vt 0.437500 0.812500
vt 0.500000 0.812500
vt 0.500000 1.000000
vt 0.437500 1.000000
vt 0.656250 0.125000
vt 0.656250 0.312500
vt 0.562500 0.195065
vt 0.562500 0.007565
vt 0.656250 0.312500
vt 0.656250 0.125000
vt 0.562500 0.007565
vt 0.562500 0.195065
vt 0.375000 1.000000
vt 0.375000 0.812500
vt 0.375000 1.000000
vt 0.375000 0.812500
vt 0.500000 0.812500
vt 0.500000 1.000000
vt 0.562500 0.312500
vt 0.562500 0.500000
vt 0.750000 0.500000
vt 0.750000 0.312500
vt 0.375000 0.812500
vt 0.437500 0.812500
vt 0.437500 1.000000
vt 0.375000 1.000000
vt 0.437500 1.000000
vt 0.375000 1.000000
vt 0.375000 0.812500
vt 0.437500 0.812500
vt 0.375000 0.812500
vt 0.437500 0.812500
vt 0.437500 1.000000
vt 0.375000 1.000000
vt 0.437500 1.000000
vt 0.375000 1.000000
vt 0.375000 0.812500
vt 0.437500 0.812500
vn 0.0000 0.0000 -1.0000
vn 0.0000 -1.0000 0.0000
vn -1.0000 0.0000 0.0000
vn 0.0000 1.0000 0.0000
vn 1.0000 0.0000 0.0000
vn 0.0000 -0.6247 -0.7809
vn -0.0000 0.6247 0.7809
vn 0.0000 0.0000 1.0000
vn 0.7809 -0.6247 0.0000
vn -0.7809 0.6247 0.0000
vn -0.0000 -0.6247 0.7809
vn 0.0000 0.6247 -0.7809
vn -0.7809 -0.6247 -0.0000
vn 0.7809 0.6247 0.0000
usemtl Material
s off
f 133/319/40 135/320/40 136/321/40 134/322/40
f 135/323/41 140/324/41 137/325/41 136/326/41
f 136/327/42 137/328/42 138/329/42 134/330/42
f 134/331/43 138/332/43 139/333/43 133/334/43
f 133/335/44 139/336/44 140/337/44 135/338/44
f 140/339/44 139/340/44 142/341/44 141/342/44
f 138/343/42 137/344/42 144/345/42 143/346/42
f 137/328/45 140/337/45 141/347/45 144/348/45
f 139/349/46 138/350/46 143/351/46 142/352/46
f 145/353/44 147/354/44 148/355/44 146/356/44
f 147/357/41 152/358/41 149/359/41 148/360/41
f 148/361/40 149/362/40 150/363/40 146/364/40
f 146/365/43 150/366/43 151/367/43 145/368/43
f 145/369/47 151/370/47 152/371/47 147/372/47
f 152/373/47 151/374/47 154/375/47 153/376/47
f 150/377/40 149/378/40 156/379/40 155/380/40
f 149/362/48 152/371/48 153/381/48 156/382/48
f 151/383/49 150/384/49 155/385/49 154/386/49
f 157/387/47 159/388/47 160/389/47 158/390/47
f 159/391/41 164/392/41 161/393/41 160/394/41
f 160/395/44 161/396/44 162/397/44 158/398/44
f 158/399/43 162/400/43 163/401/43 157/402/43
f 157/403/42 163/404/42 164/405/42 159/406/42
f 164/407/42 163/408/42 166/409/42 165/410/42
f 162/411/44 161/412/44 168/413/44 167/414/44
f 161/396/50 164/405/50 165/415/50 168/416/50
f 163/417/51 162/418/51 167/419/51 166/420/51
f 169/421/42 171/422/42 172/423/42 170/424/42
f 171/425/41 176/426/41 173/427/41 172/428/41
f 172/429/47 173/430/47 174/431/47 170/432/47
f 170/433/43 174/434/43 175/435/43 169/436/43
f 169/437/40 175/438/40 176/439/40 171/440/40
f 176/441/40 175/442/40 178/443/40 177/444/40
f 174/445/47 173/446/47 180/447/47 179/448/47
f 173/430/52 176/439/52 177/449/52 180/450/52
f 175/451/53 174/452/53 179/453/53 178/454/53
f 181/455/43 183/456/43 184/457/43 182/458/43
f 182/459/44 186/460/44 188/461/44 184/462/44
f 183/463/42 187/464/42 185/465/42 181/466/42
f 184/467/47 188/468/47 187/469/47 183/470/47
f 181/471/40 185/472/40 186/473/40 182/474/40
