# Blender v2.91.0 OBJ File: 'strange_crystal.blend'
# www.blender.org
mtllib strange_crystal_base.mtl
o vcrystal.001
v 0.218700 0.001000 0.781300
v 0.375000 0.001000 0.875000
v 0.375000 0.103100 0.625000
v 0.125000 0.001000 0.625000
v 0.625000 0.001000 0.875000
v 0.625000 0.103100 0.625000
v 0.781300 0.001000 0.781300
v 0.875000 0.001000 0.625000
v 0.375000 0.103100 0.375000
v 0.125000 0.001000 0.375000
v 0.625000 0.103100 0.375000
v 0.875000 0.001000 0.375000
v 0.375000 0.001000 0.125000
v 0.218700 0.001000 0.218700
v 0.625000 0.001000 0.125000
v 0.781300 0.001000 0.218700
vt 0.375125 0.874625
vt 0.218975 0.781100
vt 0.125375 0.624875
vt 0.375125 0.624875
vt 0.874625 0.375125
vt 0.624875 0.375125
vt 0.624875 0.125375
vt 0.781025 0.218900
vt 0.375125 0.375125
vt 0.125375 0.375125
vt 0.218900 0.218975
vt 0.375125 0.125375
vt 0.624875 0.624875
vt 0.874625 0.624875
vt 0.624875 0.874625
vt 0.781100 0.781025
vn -0.1157 0.9324 -0.3425
vn 0.0000 1.0000 -0.0000
vn -0.3425 0.9324 -0.1157
vn -0.1855 0.9650 -0.1855
vn 0.3425 0.9324 0.1157
vn 0.1855 0.9650 0.1855
vn 0.1157 0.9324 0.3425
vn -0.1709 0.9704 0.1709
vn -0.3765 0.9220 0.0903
vn -0.2965 0.9078 0.2965
vn -0.0903 0.9220 0.3765
vn 0.1709 0.9704 -0.1709
vn 0.3765 0.9220 -0.0903
vn 0.0903 0.9220 -0.3765
vn 0.2965 0.9078 -0.2965
usemtl Default_OBJ
s 1
f 13/1/1 14/2/2 10/3/3 9/4/4
f 8/5/5 6/6/6 5/7/7 7/8/2
f 3/9/8 4/10/9 1/11/10 2/12/11
f 11/13/12 9/4/4 3/9/8 6/6/6
f 12/14/13 11/13/12 6/6/6 8/5/5
f 15/15/14 13/1/1 9/4/4 11/13/12
f 16/16/15 15/15/14 11/13/12 12/14/13
f 6/6/6 3/9/8 2/12/11 5/7/7
f 9/4/4 10/3/3 4/10/9 3/9/8
