# Blender v2.80 (sub 75) OBJ File: 'Autocaster.blend'
# www.blender.org
mtllib autocaster.mtl
o Sphere_turret
v 0.500000 0.735100 0.823600
v 0.500000 0.880400 0.623600
v 0.276400 0.807800 0.623600
v 0.361800 0.690200 0.823600
v 0.138200 0.617600 0.623600
v 0.276400 0.572700 0.823600
v 0.138200 0.382400 0.623600
v 0.276400 0.427300 0.823600
v 0.276400 0.192200 0.623600
v 0.361800 0.309800 0.823600
v 0.500000 0.119600 0.623600
v 0.500000 0.264900 0.823600
v 0.723600 0.192200 0.623600
v 0.638200 0.309800 0.823600
v 0.861800 0.382400 0.623600
v 0.723600 0.427300 0.823600
v 0.861800 0.617600 0.623600
v 0.723600 0.572700 0.823600
v 0.723600 0.807800 0.623600
v 0.638200 0.690200 0.823600
v 0.500000 0.880400 0.376400
v 0.276400 0.807800 0.376400
v 0.138200 0.617600 0.376400
v 0.138200 0.382400 0.376400
v 0.276400 0.192200 0.376400
v 0.500000 0.119600 0.376400
v 0.723600 0.192200 0.376400
v 0.861800 0.382400 0.376400
v 0.861800 0.617600 0.376400
v 0.723600 0.807800 0.376400
v 0.500000 0.735100 0.176400
v 0.361800 0.690200 0.176400
v 0.276400 0.572700 0.176400
v 0.276400 0.427300 0.176400
v 0.361800 0.309800 0.176400
v 0.500000 0.264900 0.176400
v 0.638200 0.309800 0.176400
v 0.723600 0.427300 0.176400
v 0.723600 0.572700 0.176400
v 0.638200 0.690200 0.176400
v 0.500000 0.500000 0.100000
v 0.361800 0.690200 0.151400
v 0.500000 0.735100 0.151400
v 0.276400 0.572700 0.151400
v 0.276400 0.427300 0.151400
v 0.361800 0.309800 0.151400
v 0.500000 0.264900 0.151400
v 0.638200 0.309800 0.151400
v 0.723600 0.427300 0.151400
v 0.723600 0.572700 0.151400
v 0.638200 0.690200 0.151400
v 0.500000 0.264900 0.848600
v 0.638200 0.309800 0.848600
v 0.590800 0.375000 0.874800
v 0.500000 0.375000 0.884400
v 0.409200 0.375000 0.874800
v 0.361800 0.309800 0.848600
v 0.723600 0.427300 0.848600
v 0.723600 0.572700 0.848600
v 0.625000 0.540600 0.882300
v 0.625000 0.459400 0.882300
v 0.625000 0.625000 0.865300
v 0.638200 0.690200 0.848600
v 0.590800 0.625000 0.874800
v 0.500000 0.735100 0.848600
v 0.500000 0.625000 0.884400
v 0.361800 0.690200 0.848600
v 0.409200 0.625000 0.874800
v 0.375000 0.375000 0.865300
v 0.375000 0.459400 0.882300
v 0.276400 0.427300 0.848600
v 0.375000 0.540600 0.882300
v 0.276400 0.572700 0.848600
v 0.375000 0.375000 0.725000
v 0.625000 0.375000 0.725000
v 0.625000 0.625000 0.725000
v 0.375000 0.625000 0.725000
v 0.625000 0.375000 0.865300
v 0.375000 0.625000 0.865300
v 0.409200 0.625000 0.849800
v 0.375000 0.625000 0.840300
v 0.500000 0.625000 0.859400
v 0.590800 0.625000 0.849800
v 0.625000 0.625000 0.840300
v 0.375000 0.459400 0.857300
v 0.375000 0.375000 0.840300
v 0.375000 0.540600 0.857300
v 0.409200 0.375000 0.849800
v 0.500000 0.375000 0.859400
v 0.590800 0.375000 0.849800
v 0.625000 0.375000 0.840300
v 0.625000 0.459400 0.857300
v 0.625000 0.540600 0.857300
vt 0.218800 0.000000
vt 0.281300 0.000000
vt 0.281300 0.031300
vt 0.218800 0.031300
vt 0.968800 0.718800
vt 0.968800 0.625000
vt 1.000000 0.625000
vt 1.000000 0.718800
vt 1.000000 0.906300
vt 1.000000 1.000000
vt 0.968800 1.000000
vt 0.968800 0.906300
vt 1.000000 0.812500
vt 0.968800 0.812500
vt 1.000000 0.718800
vt 0.968800 0.718800
vt 1.000000 0.625000
vt 0.968800 0.625000
vt 1.000000 0.531300
vt 0.968800 0.531300
vt 1.000000 0.906300
vt 1.000000 1.000000
vt 0.968800 1.000000
vt 0.968800 0.906300
vt 1.000000 0.812500
vt 0.968800 0.812500
vt 1.000000 0.718800
vt 0.968800 0.718800
vt 1.000000 0.625000
vt 0.968800 0.625000
vt 1.000000 0.531300
vt 0.968800 0.531300
vt 0.250000 0.000000
vt 0.312500 0.000000
vt 0.312500 0.031300
vt 0.250000 0.031300
vt 0.218800 0.000000
vt 0.250000 0.000000
vt 0.250000 0.031300
vt 0.218800 0.031300
vt 0.218800 0.000000
vt 0.281300 0.000000
vt 0.281300 0.031300
vt 0.218800 0.031300
vt 0.343800 0.000000
vt 0.406300 0.000000
vt 0.406300 0.031300
vt 0.343800 0.031300
vt 0.375000 0.000000
vt 0.406300 0.000000
vt 0.406300 0.031300
vt 0.375000 0.031300
vt 0.312500 0.000000
vt 0.312500 0.031300
vt 0.375000 0.000000
vt 0.406300 0.000000
vt 0.406300 0.031300
vt 0.375000 0.031300
vt 0.218800 0.000000
vt 0.218800 0.031300
vt 0.343800 0.000000
vt 0.406300 0.000000
vt 0.406300 0.031300
vt 0.343800 0.031300
vt 0.968800 1.000000
vt 0.968800 0.906300
vt 1.000000 0.906300
vt 1.000000 1.000000
vt 0.968800 0.812500
vt 0.968800 0.718800
vt 1.000000 0.718800
vt 1.000000 0.812500
vt 0.968800 0.906300
vt 1.000000 0.906300
vt 0.968800 1.000000
vt 1.000000 1.000000
vt 0.968800 0.812500
vt 1.000000 0.812500
vt 0.968800 0.625000
vt 0.968800 0.531300
vt 1.000000 0.531300
vt 1.000000 0.625000
vt 0.968800 0.531300
vt 1.000000 0.531300
vt 0.156300 0.687500
vt 0.156300 0.843800
vt 0.000000 0.843800
vt 0.000000 0.687500
vt 0.500000 0.531300
vt 0.500000 0.687500
vt 0.343800 0.687500
vt 0.343800 0.531300
vt 0.343800 0.375000
vt 0.500000 0.375000
vt 0.000000 0.843800
vt 0.156300 0.843800
vt 0.156300 1.000000
vt 0.000000 1.000000
vt 0.500000 0.218800
vt 0.500000 0.375000
vt 0.343800 0.375000
vt 0.343800 0.218800
vt 0.156300 0.375000
vt 0.156300 0.531300
vt 0.000000 0.531300
vt 0.000000 0.375000
vt 0.000000 0.531300
vt 0.156300 0.531300
vt 0.156300 0.687500
vt 0.000000 0.687500
vt 0.500000 0.843800
vt 0.343800 0.843800
vt 0.343800 0.843800
vt 0.500000 0.843800
vt 0.500000 1.000000
vt 0.343800 1.000000
vt 0.343800 0.687500
vt 0.343800 0.531300
vt 0.156300 0.375000
vt 0.156300 0.218800
vt 0.343800 1.000000
vt 0.156300 1.000000
vt 0.343800 0.218800
vt 0.156300 0.218800
vt 0.500000 0.218800
vt 0.000000 0.375000
vt 0.000000 0.218800
vt 0.500000 0.531300
vt 0.000000 0.218800
vt 0.500000 1.000000
vt 0.500000 0.687500
vt 0.000000 1.000000
vt 0.718800 0.718800
vt 0.812500 1.000000
vt 0.625000 1.000000
vt 0.812500 1.000000
vt 0.625000 1.000000
vt 0.812500 1.000000
vt 0.625000 1.000000
vt 0.812500 1.000000
vt 0.625000 1.000000
vt 0.812500 1.000000
vt 0.625000 1.000000
vt 0.812500 1.000000
vt 0.625000 1.000000
vt 0.812500 1.000000
vt 0.625000 1.000000
vt 0.812500 1.000000
vt 0.625000 1.000000
vt 0.812500 1.000000
vt 0.625000 1.000000
vt 0.812500 1.000000
vt 0.625000 1.000000
vt 0.625000 1.000000
vt 0.666200 0.875000
vt 0.781300 0.906300
vt 0.812500 1.000000
vt 0.656300 0.906300
vt 0.770700 0.875000
vt 0.812500 1.000000
vt 0.625000 1.000000
vt 0.656300 0.906300
vt 0.770700 0.875000
vt 0.812500 1.000000
vt 0.625000 1.000000
vt 0.687500 0.937500
vt 0.770700 0.875000
vt 0.812500 1.000000
vt 0.625000 1.000000
vt 0.656300 0.906300
vt 0.625000 1.000000
vt 0.666200 0.875000
vt 0.781300 0.906300
vt 0.812500 1.000000
vt 0.687500 0.937500
vt 0.770700 0.875000
vt 0.812500 1.000000
vt 0.625000 1.000000
vt 0.656300 0.906300
vt 0.666200 0.875000
vt 0.770700 0.875000
vt 0.812500 1.000000
vt 0.625000 1.000000
vt 0.625000 1.000000
vt 0.666200 0.875000
vt 0.750000 0.937500
vt 0.812500 1.000000
vt 0.781300 0.906300
vt 0.625000 1.000000
vt 0.666200 0.875000
vt 0.750000 0.937500
vt 0.812500 1.000000
vt 0.781300 0.906300
vt 0.406300 0.125000
vt 0.218800 0.125000
vt 0.406300 0.125000
vt 0.218800 0.125000
vt 0.218800 0.125000
vt 0.406300 0.125000
vt 0.218800 0.125000
vt 0.406300 0.125000
vt 0.187500 0.187500
vt -0.000000 0.187500
vt -0.000000 -0.000000
vt 0.187500 -0.000000
vt 0.625000 1.000000
vt 0.666200 0.875000
vt 0.770700 0.875000
vt 0.812500 1.000000
vn -1.0000 0.0000 0.0000
vn 0.8089 0.5879 0.0000
vn -0.3090 0.9511 0.0000
vn -0.8089 0.5879 0.0000
vn -0.8089 -0.5879 0.0000
vn -0.3090 -0.9511 0.0000
vn 0.3090 -0.9511 0.0000
vn 0.8089 -0.5879 0.0000
vn 1.0000 0.0000 0.0000
vn 0.3090 0.9511 0.0000
vn 0.0000 1.0000 0.0000
vn 0.0000 -1.0000 0.0000
vn 0.9095 -0.2955 -0.2925
vn 0.5620 -0.7737 -0.2925
vn 0.5551 -0.7642 -0.3285
vn 0.8982 -0.2919 -0.3285
vn 0.8982 0.2919 0.3285
vn 0.8982 -0.2919 0.3285
vn 0.9095 -0.2955 0.2925
vn 0.9095 0.2955 0.2925
vn 0.5620 0.7737 0.2925
vn 0.5551 0.7642 0.3285
vn -0.5551 0.7642 -0.3285
vn -0.5620 0.7737 -0.2925
vn 0.0000 0.9562 -0.2925
vn 0.0000 0.9445 -0.3285
vn 0.0000 -0.9445 0.3285
vn -0.5551 -0.7642 0.3285
vn -0.5620 -0.7737 0.2925
vn 0.0000 -0.9562 0.2925
vn 0.5620 0.7737 -0.2925
vn 0.9095 0.2955 -0.2925
vn 0.8982 0.2919 -0.3285
vn 0.5551 0.7642 -0.3285
vn -0.8982 -0.2919 -0.3285
vn -0.9095 -0.2955 -0.2925
vn -0.9095 0.2955 -0.2925
vn -0.8982 0.2919 -0.3285
vn 0.5551 -0.7642 0.3285
vn 0.5620 -0.7737 0.2925
vn -0.5620 0.7737 0.2925
vn -0.5551 0.7642 0.3285
vn 0.0000 0.9445 0.3285
vn 0.0000 0.9562 0.2925
vn -0.9095 0.2955 0.2925
vn -0.9095 -0.2955 0.2925
vn -0.5620 -0.7737 -0.2925
vn 0.0000 -0.9562 -0.2925
vn -0.5551 -0.7642 -0.3285
vn 0.0000 -0.9445 -0.3285
vn -0.8982 -0.2919 0.3285
vn -0.8982 0.2919 0.3285
vn 0.0000 0.0000 -1.0000
vn -0.4817 0.6632 -0.5727
vn 0.0000 0.8197 -0.5727
vn -0.7796 0.2534 -0.5727
vn -0.7796 -0.2534 -0.5727
vn -0.4817 -0.6632 -0.5727
vn 0.0000 -0.8197 -0.5727
vn 0.4817 -0.6632 -0.5727
vn 0.7796 -0.2534 -0.5727
vn 0.7796 0.2534 -0.5727
vn 0.4817 0.6632 -0.5727
vn 0.0000 0.8428 0.5382
vn 0.0000 -0.5632 0.8263
vn 0.1249 -0.5828 0.8030
vn 0.4953 0.6817 0.5383
vn 0.1249 0.5828 0.8030
vn 0.0000 0.5632 0.8263
vn 0.0000 -0.8428 0.5382
vn 0.4953 -0.6817 0.5383
vn -0.1249 -0.5828 0.8030
vn -0.4953 0.6817 0.5383
vn -0.1126 -0.2023 0.9728
vn -0.5682 0.0650 0.8203
vn 0.8014 0.2606 0.5383
vn -0.1249 0.5828 0.8030
vn -0.4953 -0.6817 0.5383
vn 0.1126 0.2023 0.9728
vn 0.5682 -0.0650 0.8203
vn -0.8014 -0.2606 0.5383
vn -0.5682 -0.0650 0.8203
vn 0.8014 -0.2606 0.5383
vn -0.1126 0.2023 0.9728
vn -0.8014 0.2606 0.5383
vn 0.5682 0.0650 0.8203
vn 0.1126 -0.2023 0.9728
vn 0.7071 -0.7071 0.0000
vn 0.5773 -0.5773 0.5773
vn -0.7071 -0.7071 0.0000
vn -0.5773 -0.5773 0.5773
vn 0.7071 0.7071 0.0000
vn 0.5773 0.5773 0.5773
vn -0.7071 0.7071 0.0000
vn -0.5773 0.5773 0.5773
usemtl Default_OBJ
s off
f 78/1/1 61/2/1 92/3/1 91/4/1
f 50/5/2 51/6/2 40/7/2 39/8/2
f 67/9/3 65/10/3 1/11/3 4/12/3
f 73/13/4 67/9/4 4/12/4 6/14/4
f 71/15/1 73/13/1 6/14/1 8/16/1
f 57/17/5 71/15/5 8/16/5 10/18/5
f 52/19/6 57/17/6 10/18/6 12/20/6
f 53/21/7 52/22/7 12/23/7 14/24/7
f 58/25/8 53/21/8 14/24/8 16/26/8
f 59/27/9 58/25/9 16/26/9 18/28/9
f 63/29/2 59/27/2 18/28/2 20/30/2
f 65/31/10 63/29/10 20/30/10 1/32/10
f 56/33/11 55/34/11 89/35/11 88/36/11
f 62/37/12 64/38/12 83/39/12 84/40/12
f 79/41/9 72/42/9 87/43/9 81/44/9
f 60/45/1 62/46/1 84/47/1 93/48/1
f 54/49/11 78/50/11 91/51/11 90/52/11
f 64/38/12 66/53/12 82/54/12 83/39/12
f 55/34/11 54/49/11 90/52/11 89/35/11
f 68/55/12 79/56/12 81/57/12 80/58/12
f 69/59/11 56/33/11 88/36/11 86/60/11
f 70/61/9 69/62/9 86/63/9 85/64/9
f 47/65/7 48/66/7 37/67/7 36/68/7
f 66/53/12 68/55/12 80/58/12 82/54/12
f 44/69/1 45/70/1 34/71/1 33/72/1
f 72/42/9 70/61/9 85/64/9 87/43/9
f 61/2/1 60/45/1 93/48/1 92/3/1
f 42/73/4 44/69/4 33/72/4 32/74/4
f 43/75/3 42/73/3 32/74/3 31/76/3
f 49/77/9 50/5/9 39/8/9 38/78/9
f 48/66/8 49/77/8 38/78/8 37/67/8
f 46/79/6 47/80/6 36/81/6 35/82/6
f 45/70/5 46/79/5 35/82/5 34/71/5
f 51/6/10 43/83/10 31/84/10 40/7/10
s 1
f 28/85/13 27/86/14 37/87/15 38/88/16
f 18/89/17 16/90/18 15/91/19 17/92/20
f 19/93/21 20/94/22 18/89/17 17/92/20
f 32/95/23 22/96/24 21/97/25 31/98/26
f 12/99/27 10/100/28 9/101/29 11/102/30
f 30/103/31 29/104/32 39/105/33 40/106/34
f 34/107/35 24/108/36 23/109/37 33/110/38
f 16/90/18 14/111/39 13/112/40 15/91/19
f 3/113/41 4/114/42 1/115/43 2/116/44
f 5/117/45 3/113/41 22/96/24 23/109/37
f 7/118/46 5/117/45 23/109/37 24/108/36
f 25/119/47 9/101/29 7/118/46 24/108/36
f 26/120/48 11/102/30 9/101/29 25/119/47
f 27/86/14 13/112/40 11/121/30 26/122/48
f 28/85/13 15/91/19 13/112/40 27/86/14
f 17/92/20 15/91/19 28/85/13 29/104/32
f 19/93/21 17/92/20 29/104/32 30/103/31
f 2/123/44 19/93/21 30/103/31 21/124/25
f 2/123/44 1/125/43 20/94/22 19/93/21
f 35/126/49 25/119/47 24/108/36 34/107/35
f 36/127/50 26/120/48 25/119/47 35/126/49
f 9/101/29 10/100/28 8/128/51 7/118/46
f 31/129/26 21/124/25 30/103/31 40/106/34
f 14/111/39 12/130/27 11/121/30 13/112/40
f 23/109/37 22/96/24 32/95/23 33/110/38
f 8/128/51 6/131/52 5/117/45 7/118/46
f 5/117/45 6/131/52 4/114/42 3/113/41
f 27/86/14 26/122/48 36/132/50 37/87/15
f 41/133/53 42/134/54 43/135/55
f 41/133/53 44/136/56 42/137/54
f 41/133/53 45/138/57 44/139/56
f 41/133/53 46/140/58 45/141/57
f 41/133/53 47/142/59 46/143/58
f 41/133/53 48/144/60 47/145/59
f 41/133/53 49/146/61 48/147/60
f 41/133/53 50/148/62 49/149/61
f 41/133/53 51/150/63 50/151/62
f 41/133/53 43/152/55 51/153/63
f 65/154/64 66/155/65 64/156/66 63/157/67
f 54/158/68 55/159/69 52/160/70 53/161/71
f 68/162/72 66/163/65 65/164/64 67/165/73
f 62/166/74 60/167/75 59/168/76
f 62/166/74 59/168/76 63/169/67
f 62/166/74 63/169/67 64/170/66
f 52/171/70 55/172/69 56/173/77 57/174/78
f 69/175/79 70/176/80 71/177/81
f 69/175/79 71/177/81 57/178/78
f 69/175/79 57/178/78 56/179/77
f 60/180/75 61/181/82 58/182/83 59/183/76
f 58/184/83 61/185/82 78/186/84
f 53/187/71 58/184/83 78/186/84
f 53/187/71 78/186/84 54/188/68
f 73/189/85 72/190/86 79/191/87
f 67/192/73 73/189/85 79/191/87
f 67/192/73 79/191/87 68/193/72
f 80/58/12 81/57/88 77/194/89
f 82/54/12 80/58/12 77/194/89
f 83/39/12 82/54/12 77/194/89
f 84/40/90 83/39/12 77/194/89
f 84/40/90 77/194/89 76/195/91
f 85/64/9 86/63/92 74/196/93
f 87/43/9 85/64/9 74/196/93
f 81/44/88 87/43/9 74/196/93
f 81/44/88 74/196/93 77/197/89
f 74/198/93 86/60/92 88/36/11
f 74/198/93 88/36/11 89/35/11
f 74/198/93 89/35/11 90/52/11
f 74/198/93 90/52/11 91/51/94
f 74/198/93 91/51/94 75/199/95
f 75/200/95 91/4/94 92/3/1
f 75/200/95 92/3/1 93/48/1
f 75/200/95 93/48/1 84/47/90
f 75/200/95 84/47/90 76/201/91
f 39/105/33 29/104/32 28/85/13 38/88/16
f 3/113/41 2/116/44 21/97/25 22/96/24
f 76/202/91 77/203/89 74/204/93 75/205/95
f 71/206/81 70/207/80 72/208/86 73/209/85
o Base_turret.001
v 0.293400 0.000000 0.001100
v 0.293400 0.125000 0.001100
v 0.706600 0.125000 0.001100
v 0.706600 0.000000 0.001100
v 0.405600 0.275000 0.076100
v 0.435300 0.275000 0.147800
v 0.564700 0.275000 0.147800
v 0.594400 0.275000 0.076100
v 0.385200 0.125000 0.222800
v 0.385200 0.000000 0.222800
v 0.614800 0.000000 0.222800
v 0.614800 0.125000 0.222800
v 0.998900 0.125000 0.293400
v 0.998900 0.000000 0.293400
v 0.777200 0.125000 0.385200
v 0.777200 0.000000 0.385200
v 0.998900 0.125000 0.706600
v 0.998900 -0.000000 0.706600
v 0.923900 0.275000 0.405600
v 0.852200 0.275000 0.435300
v 0.852200 0.275000 0.564700
v 0.923900 0.275000 0.594400
v 0.777200 -0.000000 0.614800
v 0.777200 0.125000 0.614800
v 0.706600 0.125000 0.998900
v 0.706600 -0.000000 0.998900
v 0.614800 0.125000 0.777200
v 0.614800 -0.000000 0.777200
v 0.293400 0.125000 0.998900
v 0.293400 -0.000000 0.998900
v 0.594400 0.275000 0.923900
v 0.564700 0.275000 0.852200
v 0.435300 0.275000 0.852200
v 0.405600 0.275000 0.923900
v 0.385200 -0.000000 0.777200
v 0.385200 0.125000 0.777200
v 0.001100 0.125000 0.706600
v 0.001100 -0.000000 0.706600
v 0.222800 0.125000 0.614800
v 0.222800 -0.000000 0.614800
v 0.001100 0.125000 0.293400
v 0.001100 0.000000 0.293400
v 0.076100 0.275000 0.594400
v 0.147800 0.275000 0.564700
v 0.147800 0.275000 0.435300
v 0.076100 0.275000 0.405600
v 0.222800 0.000000 0.385200
v 0.222800 0.125000 0.385200
vt 0.531300 0.406300
vt 0.531300 0.281300
vt 0.718800 0.281300
vt 0.718800 0.406300
vt 0.812500 0.437500
vt 0.812500 0.500000
vt 0.625000 0.500000
vt 0.625000 0.437500
vt 0.531300 0.562500
vt 0.625000 0.562500
vt 0.625000 0.656300
vt 0.531300 0.656300
vt 0.812500 0.437500
vt 0.812500 0.500000
vt 0.625000 0.500000
vt 0.625000 0.437500
vt 0.718800 0.500000
vt 0.718800 0.437500
vt 0.812500 0.437500
vt 0.812500 0.500000
vt 0.718800 0.500000
vt 0.718800 0.437500
vt 0.812500 0.437500
vt 0.812500 0.500000
vt 0.812500 0.437500
vt 0.812500 0.500000
vt 0.625000 0.500000
vt 0.625000 0.437500
vt 0.625000 0.500000
vt 0.625000 0.437500
vt 0.812500 0.437500
vt 0.812500 0.500000
vt 0.625000 0.500000
vt 0.625000 0.437500
vt 0.625000 0.500000
vt 0.625000 0.437500
vt 0.718800 0.437500
vt 0.718800 0.500000
vt 0.812500 0.437500
vt 0.812500 0.500000
vt 0.625000 0.500000
vt 0.625000 0.437500
vt 0.906300 0.281300
vt 0.906300 0.406300
vt 0.718800 0.406300
vt 0.718800 0.281300
vt 0.812500 0.437500
vt 0.812500 0.500000
vt 0.625000 0.500000
vt 0.625000 0.437500
vt 0.718800 0.281300
vt 0.718800 0.406300
vt 0.531300 0.406300
vt 0.531300 0.281300
vt 0.718800 0.406300
vt 0.718800 0.281300
vt 0.906300 0.281300
vt 0.906300 0.406300
vt 0.812500 0.437500
vt 0.812500 0.500000
vt 0.625000 0.500000
vt 0.625000 0.437500
vt 0.718800 0.281300
vt 0.718800 0.406300
vt 0.531300 0.406300
vt 0.531300 0.281300
vt 0.718800 0.500000
vt 0.718800 0.437500
vt 0.812500 0.437500
vt 0.812500 0.500000
vt 0.687500 0.562500
vt 0.687500 0.531300
vt 0.781300 0.531300
vt 0.781300 0.562500
vt 0.812500 0.437500
vt 0.812500 0.500000
vt 0.625000 0.500000
vt 0.625000 0.437500
vt 0.687500 0.562500
vt 0.687500 0.531300
vt 0.781300 0.531300
vt 0.781300 0.562500
vt 0.625000 0.500000
vt 0.625000 0.437500
vt 0.531300 0.406300
vt 0.531300 0.281300
vt 0.718800 0.281300
vt 0.718800 0.406300
vt 0.812500 0.437500
vt 0.812500 0.500000
vt 0.625000 0.500000
vt 0.625000 0.437500
vt 0.718800 0.281300
vt 0.718800 0.406300
vt 0.531300 0.406300
vt 0.531300 0.281300
vt 0.781300 0.531300
vt 0.781300 0.562500
vt 0.687500 0.562500
vt 0.687500 0.531300
vt 0.718800 0.281300
vt 0.718800 0.406300
vt 0.531300 0.406300
vt 0.531300 0.281300
vt 0.531300 0.406300
vt 0.531300 0.281300
vt 0.718800 0.281300
vt 0.718800 0.406300
vt 0.812500 0.562500
vt 0.906300 0.562500
vt 0.906300 0.656300
vt 0.812500 0.656300
vt 0.781300 0.531300
vt 0.781300 0.562500
vt 0.687500 0.562500
vt 0.687500 0.531300
vt 0.718800 0.406300
vt 0.718800 0.281300
vt 0.906300 0.281300
vt 0.906300 0.406300
vt 0.906300 0.281300
vt 0.906300 0.406300
vt 0.718800 0.406300
vt 0.718800 0.281300
vt 0.718800 0.406300
vt 0.718800 0.281300
vt 0.906300 0.281300
vt 0.906300 0.406300
vt 0.718800 0.281300
vt 0.906300 0.281300
vt 0.906300 0.406300
vt 0.718800 0.406300
vt 0.812500 0.562500
vt 0.906300 0.562500
vt 0.906300 0.656300
vt 0.812500 0.656300
vt 0.812500 0.562500
vt 0.906300 0.562500
vt 0.906300 0.656300
vt 0.812500 0.656300
vt 0.531300 0.562500
vt 0.625000 0.562500
vt 0.625000 0.656300
vt 0.531300 0.656300
vt 0.812500 0.562500
vt 0.906300 0.562500
vt 0.906300 0.656300
vt 0.812500 0.656300
vt 0.531300 0.562500
vt 0.625000 0.562500
vt 0.625000 0.656300
vt 0.531300 0.656300
vt 0.718800 0.281300
vt 0.906300 0.281300
vt 0.906300 0.406300
vt 0.718800 0.406300
vt 0.812500 0.562500
vt 0.906300 0.562500
vt 0.906300 0.656300
vt 0.812500 0.656300
vt 0.531300 0.562500
vt 0.625000 0.562500
vt 0.625000 0.656300
vt 0.531300 0.656300
vt 0.531300 0.562500
vt 0.625000 0.562500
vt 0.625000 0.656300
vt 0.531300 0.656300
vt 0.718800 0.281300
vt 0.906300 0.281300
vt 0.906300 0.406300
vt 0.718800 0.406300
vt 0.812500 0.562500
vt 0.906300 0.562500
vt 0.906300 0.656300
vt 0.812500 0.656300
vt 0.531300 0.562500
vt 0.625000 0.562500
vt 0.625000 0.656300
vt 0.531300 0.656300
vt 0.718800 0.281300
vt 0.906300 0.281300
vt 0.906300 0.406300
vt 0.718800 0.406300
vn 0.0000 -1.0000 -0.0000
vn 0.0000 -0.0000 1.0000
vn -0.8944 0.4472 0.0000
vn -0.7071 -0.0000 0.7071
vn 0.7071 -0.0000 0.7071
vn 0.7071 0.0000 -0.7071
vn -1.0000 0.0000 0.0000
vn 1.0000 0.0000 0.0000
vn -0.7071 0.0000 -0.7071
vn 0.0000 0.0000 -1.0000
vn -0.0000 1.0000 0.0000
vn -0.8264 0.4471 0.3422
vn 0.8944 0.4472 0.0000
vn 0.8264 0.4471 -0.3422
vn -0.8264 0.4471 -0.3422
vn 0.8264 0.4471 0.3422
vn 0.3422 0.4471 -0.8264
vn 0.0000 0.4472 0.8944
vn 0.3422 0.4471 0.8264
vn -0.3422 0.4471 0.8264
vn -0.3422 0.4471 -0.8264
vn 0.0000 0.4472 -0.8944
usemtl Default_OBJ
s off
f 135/210/96 140/211/96 133/212/96 131/213/96
f 122/214/97 123/215/97 119/216/97 118/217/97
f 114/218/98 113/219/98 108/220/98 117/221/98
f 130/222/99 131/223/99 123/224/99 122/225/99
f 103/226/100 102/227/100 141/228/100 140/229/100
f 133/230/101 132/231/101 129/232/101 128/233/101
f 134/234/102 135/235/102 131/236/102 130/237/102
f 140/238/103 141/239/103 132/231/103 133/230/103
f 95/240/104 94/241/104 135/242/104 134/243/104
f 128/244/105 129/245/105 120/246/105 121/247/105
f 121/247/104 120/246/104 117/248/104 116/249/104
f 104/250/97 105/251/97 102/227/97 103/226/97
f 102/252/106 95/253/106 134/254/106 141/255/106
f 96/256/105 97/257/105 94/258/105 95/259/105
f 111/260/96 116/261/96 109/262/96 107/263/96
f 107/264/96 109/265/96 104/266/96 97/267/96
f 106/268/101 107/269/101 97/270/101 96/271/101
f 94/272/96 103/273/96 140/274/96 135/275/96
f 109/276/99 108/277/99 105/278/99 104/279/99
f 126/280/106 127/281/106 124/282/106 125/283/106
f 110/284/103 111/285/103 107/286/103 106/287/103
f 138/288/106 139/289/106 136/290/106 137/291/106
f 116/292/102 117/293/102 108/277/102 109/276/102
f 108/294/106 106/295/106 96/296/106 105/297/106
f 118/298/100 119/299/100 111/300/100 110/301/100
f 131/302/96 133/303/96 128/304/96 123/305/96
f 100/306/106 101/307/106 98/308/106 99/309/106
f 97/310/96 104/311/96 103/312/96 94/313/96
f 120/314/106 118/315/106 110/316/106 117/317/106
f 99/318/107 98/319/107 95/320/107 102/321/107
f 114/322/106 115/323/106 112/324/106 113/325/106
f 123/326/96 128/327/96 121/328/96 119/329/96
f 132/330/106 130/331/106 122/332/106 129/333/106
f 119/334/96 121/335/96 116/336/96 111/337/96
f 112/338/108 115/339/108 110/340/108 106/341/108
f 125/342/109 124/343/109 118/344/109 120/345/109
f 127/346/110 126/347/110 129/348/110 122/349/110
f 101/350/111 100/351/111 105/352/111 96/353/111
f 138/354/108 137/355/108 132/356/108 141/357/108
f 139/358/112 138/359/112 141/360/112 134/361/112
f 124/362/113 127/363/113 122/364/113 118/365/113
f 137/366/114 136/367/114 130/368/114 132/369/114
f 100/370/113 99/371/113 102/372/113 105/373/113
f 115/374/115 114/375/115 117/376/115 110/377/115
f 136/378/98 139/379/98 134/380/98 130/381/98
f 113/382/116 112/383/116 106/384/116 108/385/116
f 126/386/117 125/387/117 120/388/117 129/389/117
f 98/390/117 101/391/117 96/392/117 95/393/117
o Focus_turret.002
v 0.600000 0.600000 0.925300
v 0.400000 0.600000 0.925300
v 0.400000 0.400000 0.925300
v 0.600000 0.400000 0.925300
v 0.400000 0.400000 0.725300
v 0.600000 0.400000 0.725300
v 0.600000 0.600000 0.725300
v 0.400000 0.600000 0.725300
vt 0.812500 0.062500
vt 0.937500 0.062500
vt 0.937500 0.187500
vt 0.812500 0.187500
vt 0.812500 0.062500
vt 0.937500 0.062500
vt 0.937500 0.187500
vt 0.812500 0.187500
vt 0.812500 0.062500
vt 0.937500 0.062500
vt 0.812500 0.187500
vt 0.937500 0.062500
vt 0.937500 0.187500
vn 1.0000 0.0000 0.0000
vn -1.0000 0.0000 0.0000
vn 0.0000 0.0000 1.0000
vn 0.0000 1.0000 0.0000
vn 0.0000 -1.0000 -0.0000
usemtl Default_OBJ
s off
f 147/394/118 148/395/118 142/396/118 145/397/118
f 149/398/119 146/399/119 144/400/119 143/401/119
f 144/402/120 145/403/120 142/396/120 143/401/120
f 148/404/121 149/398/121 143/405/121 142/396/121
f 146/399/122 147/406/122 145/397/122 144/402/122
