# Blender v2.80 (sub 75) OBJ File: 'impetus_thrusters_tweaked.blend'
# www.blender.org
mtllib impetus_thrusters.mtl
o Cube.002_Cube.009
v 0.265625 0.437500 0.718750
v 0.265625 0.656250 0.718750
v 0.265625 0.437500 0.625000
v 0.265625 0.656250 0.625000
v 0.359375 0.437500 0.718750
v 0.359375 0.656250 0.718750
v 0.359375 0.437500 0.625000
v 0.359375 0.656250 0.625000
vt 0.187500 0.375000
vt 0.187500 0.812500
vt -0.000000 0.812500
vt -0.000000 0.375000
vt 0.562500 0.375000
vt 0.562500 0.812500
vt 0.375000 0.812500
vt 0.375000 0.375000
vt 0.312500 0.812500
vt 0.500000 0.812500
vt 0.500000 1.000000
vt 0.312500 1.000000
vt 0.125000 0.812500
vt 0.312500 0.812500
vt 0.312500 1.000000
vt 0.125000 1.000000
vn -1.0000 0.0000 0.0000
vn 1.0000 0.0000 0.0000
vn 0.0000 0.0000 1.0000
vn 0.0000 -1.0000 0.0000
vn 0.0000 1.0000 0.0000
usemtl Material
s off
f 1/1/1 2/2/1 4/3/1 3/4/1
f 7/5/2 8/6/2 6/7/2 5/8/2
f 5/8/3 6/7/3 2/2/3 1/1/3
f 3/9/4 7/10/4 5/11/4 1/12/4
f 8/13/5 4/14/5 2/15/5 6/16/5
o Cube.005_Cube
v 0.437500 0.500000 0.375000
v 0.437500 0.625000 0.375000
v 0.437500 0.500000 0.359375
v 0.437500 0.625000 0.359375
v 0.562500 0.500000 0.375000
v 0.562500 0.625000 0.375000
v 0.562500 0.500000 0.359375
v 0.562500 0.625000 0.359375
v 0.453125 0.515625 0.359375
v 0.453125 0.609375 0.359375
v 0.453125 0.515625 0.343750
v 0.453125 0.609375 0.343750
v 0.546875 0.515625 0.359375
v 0.546875 0.609375 0.359375
v 0.546875 0.515625 0.343750
v 0.546875 0.609375 0.343750
vt 1.000000 0.687500
vt 1.000000 0.937500
vt 0.937500 0.937500
vt 0.937500 0.687500
vt 0.687500 0.937500
vt 0.687500 0.687500
vt 0.625000 0.937500
vt 0.625000 0.687500
vt 0.687500 0.625000
vt 0.937500 0.625000
vt 0.937500 1.000000
vt 0.687500 1.000000
vt 0.437500 0.062500
vt 0.437500 0.250000
vt 0.375000 0.250000
vt 0.375000 0.062500
vt 0.187500 0.250000
vt 0.187500 0.062500
vt 0.125000 0.250000
vt 0.125000 0.062500
vt 0.187500 0.000000
vt 0.375000 0.000000
vt 0.375000 0.312500
vt 0.187500 0.312500
vn -1.0000 0.0000 0.0000
vn 0.0000 0.0000 -1.0000
vn 1.0000 0.0000 0.0000
vn 0.0000 -1.0000 0.0000
vn 0.0000 1.0000 0.0000
usemtl Material
s off
f 9/17/6 10/18/6 12/19/6 11/20/6
f 11/20/7 12/19/7 16/21/7 15/22/7
f 15/22/8 16/21/8 14/23/8 13/24/8
f 11/20/9 15/22/9 13/25/9 9/26/9
f 16/21/10 12/19/10 10/27/10 14/28/10
f 17/29/6 18/30/6 20/31/6 19/32/6
f 19/32/7 20/31/7 24/33/7 23/34/7
f 23/34/8 24/33/8 22/35/8 21/36/8
f 19/32/9 23/34/9 21/37/9 17/38/9
f 24/33/10 20/31/10 18/39/10 22/40/10
o Cube.003_Cube.004
v 0.640625 0.437500 0.718750
v 0.640625 0.656250 0.718750
v 0.640625 0.437500 0.625000
v 0.640625 0.656250 0.625000
v 0.734375 0.437500 0.718750
v 0.734375 0.656250 0.718750
v 0.734375 0.437500 0.625000
v 0.734375 0.656250 0.625000
vt 0.375000 0.375000
vt 0.375000 0.812500
vt 0.562500 0.812500
vt 0.562500 0.375000
vt -0.000000 0.375000
vt -0.000000 0.812500
vt 0.187500 0.812500
vt 0.187500 0.375000
vt 0.500000 0.812500
vt 0.312500 0.812500
vt 0.312500 1.000000
vt 0.500000 1.000000
vt 0.312500 0.812500
vt 0.125000 0.812500
vt 0.125000 1.000000
vt 0.312500 1.000000
vn -1.0000 0.0000 0.0000
vn 1.0000 0.0000 0.0000
vn 0.0000 0.0000 1.0000
vn 0.0000 -1.0000 0.0000
vn 0.0000 1.0000 0.0000
usemtl Material
s off
f 25/41/11 26/42/11 28/43/11 27/44/11
f 31/45/12 32/46/12 30/47/12 29/48/12
f 29/48/13 30/47/13 26/42/13 25/41/13
f 27/49/14 31/50/14 29/51/14 25/52/14
f 32/53/15 28/54/15 26/55/15 30/56/15
o Cube.006_Cube.005
v 0.437500 0.500000 0.656250
v 0.437500 0.625000 0.656250
v 0.437500 0.500000 0.625000
v 0.437500 0.625000 0.625000
v 0.562500 0.500000 0.656250
v 0.562500 0.625000 0.656250
v 0.562500 0.500000 0.625000
v 0.562500 0.625000 0.625000
vt 0.625000 0.312500
vt 0.625000 0.062500
vt 0.687500 0.062500
vt 0.687500 0.312500
vt 1.000000 0.062500
vt 1.000000 0.312500
vt 0.937500 0.312500
vt 0.937500 0.062500
vt 0.687500 0.312500
vt 0.687500 0.062500
vt 0.687500 0.000000
vt 0.937500 0.000000
vt 0.937500 0.375000
vt 0.687500 0.375000
vn -1.0000 0.0000 0.0000
vn 1.0000 0.0000 0.0000
vn 0.0000 0.0000 1.0000
vn 0.0000 -1.0000 0.0000
vn 0.0000 1.0000 0.0000
usemtl Material
s off
f 33/57/16 34/58/16 36/59/16 35/60/16
f 39/61/17 40/62/17 38/63/17 37/64/17
f 37/64/18 38/63/18 34/65/18 33/66/18
f 35/67/19 39/68/19 37/64/19 33/66/19
f 40/69/20 36/70/20 34/65/20 38/63/20
o Cube.001_Cube.002
v 0.734375 0.468750 0.281250
v 0.734375 0.687500 0.281250
v 0.734375 0.468750 0.375000
v 0.734375 0.687500 0.375000
v 0.640625 0.468750 0.281250
v 0.640625 0.687500 0.281250
v 0.640625 0.468750 0.375000
v 0.640625 0.687500 0.375000
vt 0.187500 0.375000
vt 0.187500 0.812500
vt -0.000000 0.812500
vt -0.000000 0.375000
vt 0.562500 0.375000
vt 0.562500 0.812500
vt 0.375000 0.812500
vt 0.375000 0.375000
vt 0.312500 0.812500
vt 0.500000 0.812500
vt 0.500000 1.000000
vt 0.312500 1.000000
vt 0.125000 0.812500
vt 0.312500 0.812500
vt 0.312500 1.000000
vt 0.125000 1.000000
vn 1.0000 0.0000 0.0000
vn -1.0000 0.0000 0.0000
vn 0.0000 0.0000 -1.0000
vn 0.0000 -1.0000 0.0000
vn 0.0000 1.0000 0.0000
usemtl Material
s off
f 41/71/21 42/72/21 44/73/21 43/74/21
f 47/75/22 48/76/22 46/77/22 45/78/22
f 45/78/23 46/77/23 42/72/23 41/71/23
f 43/79/24 47/80/24 45/81/24 41/82/24
f 48/83/25 44/84/25 42/85/25 46/86/25
o Cube.004_Cube.003
v 0.359375 0.468750 0.281250
v 0.359375 0.687500 0.281250
v 0.359375 0.468750 0.375000
v 0.359375 0.687500 0.375000
v 0.265625 0.468750 0.281250
v 0.265625 0.687500 0.281250
v 0.265625 0.468750 0.375000
v 0.265625 0.687500 0.375000
vt 0.375000 0.375000
vt 0.375000 0.812500
vt 0.562500 0.812500
vt 0.562500 0.375000
vt -0.000000 0.375000
vt -0.000000 0.812500
vt 0.187500 0.812500
vt 0.187500 0.375000
vt 0.500000 0.812500
vt 0.312500 0.812500
vt 0.312500 1.000000
vt 0.500000 1.000000
vt 0.312500 0.812500
vt 0.125000 0.812500
vt 0.125000 1.000000
vt 0.312500 1.000000
vn 1.0000 0.0000 0.0000
vn -1.0000 0.0000 0.0000
vn 0.0000 0.0000 -1.0000
vn 0.0000 -1.0000 0.0000
vn 0.0000 1.0000 0.0000
usemtl Material
s off
f 49/87/26 50/88/26 52/89/26 51/90/26
f 55/91/27 56/92/27 54/93/27 53/94/27
f 53/94/28 54/93/28 50/88/28 49/87/28
f 51/95/29 55/96/29 53/97/29 49/98/29
f 56/99/30 52/100/30 50/101/30 54/102/30
